<?xml version="1.0" encoding="UTF-8" standalone="no"?>
<svg
   xmlns:dc="http://purl.org/dc/elements/1.1/"
   xmlns:cc="http://creativecommons.org/ns#"
   xmlns:rdf="http://www.w3.org/1999/02/22-rdf-syntax-ns#"
   xmlns:svg="http://www.w3.org/2000/svg"
   xmlns="http://www.w3.org/2000/svg"
   xmlns:xlink="http://www.w3.org/1999/xlink"
   xmlns:sodipodi="http://sodipodi.sourceforge.net/DTD/sodipodi-0.dtd"
   xmlns:inkscape="http://www.inkscape.org/namespaces/inkscape"
   id="svg1"
   height="880"
   width="740"
   version="1.1"
   inkscape:version="0.91 r13725"
   sodipodi:docname="craftbeerglass.svg">
  <sodipodi:namedview
     pagecolor="#ffffff"
     bordercolor="#666666"
     borderopacity="1"
     objecttolerance="10"
     gridtolerance="10"
     guidetolerance="10"
     inkscape:pageopacity="0"
     inkscape:pageshadow="2"
     inkscape:window-width="1916"
     inkscape:window-height="1035"
     id="namedview36"
     showgrid="false"
     fit-margin-top="0"
     fit-margin-left="0"
     fit-margin-right="0"
     fit-margin-bottom="0"
     units="px"
     inkscape:zoom="0.41894376"
     inkscape:cx="172.79307"
     inkscape:cy="422.38611"
     inkscape:window-x="4"
     inkscape:window-y="1"
     inkscape:window-maximized="1"
     inkscape:current-layer="g5004" />
  <defs
     id="defs3">
    <linearGradient
       id="linearGradient940">
      <stop
         id="stop941"
         stop-color="#fffb00"
         offset="0" />
      <stop
         id="stop942"
         stop-color="#ffac00"
         offset="1" />
    </linearGradient>
    <linearGradient
       id="linearGradient835">
      <stop
         id="stop836"
         stop-color="#fff"
         stop-opacity=".5"
         offset="0" />
      <stop
         id="stop837"
         stop-color="#fff"
         stop-opacity=".1"
         offset="1" />
    </linearGradient>
    <linearGradient
       id="linearGradient838"
       y2="101.41296"
       xlink:href="#linearGradient940"
       y1="66.609886"
       x2="24.19528"
       x1="-7.5524545"
       gradientTransform="scale(1.0153256,0.98490577)"
       gradientUnits="userSpaceOnUse" />
    <linearGradient
       id="linearGradient840"
       y2="-0.72727001"
       xlink:href="#linearGradient940"
       y1="0.89609998"
       x2="-0.24275"
       x1="0.93478" />
    <linearGradient
       id="linearGradient842"
       y2="181.61139"
       xlink:href="#linearGradient835"
       y1="183.26909"
       x2="53.934498"
       x1="36.7799"
       gradientTransform="matrix(9.7153446,0,0,4.7061878,-179.25545,-58.676053)"
       gradientUnits="userSpaceOnUse" />
    <linearGradient
       id="linearGradient866"
       xlink:href="#linearGradient835"
       gradientTransform="matrix(3.2944657,0,0,13.878499,-179.25545,-58.676053)"
       x1="85.857948"
       y1="18.604685"
       x2="129.27818"
       y2="18.604685"
       gradientUnits="userSpaceOnUse" />
    <linearGradient
       inkscape:collect="always"
       xlink:href="#linearGradient835"
       id="linearGradient5002"
       gradientTransform="matrix(2.3556715,0,0,19.409429,-179.25545,-58.676053)"
       x1="164.23761"
       y1="14.90913"
       x2="193.9082"
       y2="14.90913"
       gradientUnits="userSpaceOnUse" />
  </defs>
  <g
     id="g5004">
    <g
       style="stroke:#000000;stroke-width:1pt;stroke-linecap:round;stroke-linejoin:round"
       transform="matrix(8.260091,0,0,7.2557447,1962.9002,653.0841)"
       id="g902" />
    <g
       id="g5058"
       transform="matrix(0.97645336,0,0,1.0001069,14.469587,-4.0475707)">
      <path
         id="path881"
         d="m 170.24371,785.86941 c -11.37515,13.2979 -17.87726,32.5992 -12.99714,44.47692 8.1241,22.27077 100.77565,46.02621 178.801,46.02621 91.0296,0 173.92799,-29.69432 180.43009,-46.02621 3.25105,-11.87772 -4.87303,-26.72488 -16.25528,-44.47692 -13.00422,-29.69435 -105.65578,-43.05679 -159.29467,-40.08735 -50.39492,1.4847 -141.42449,1.4847 -170.684,40.08735 z"
         inkscape:connector-curvature="0"
         style="fill:#7f7f7f;fill-opacity:0.25;fill-rule:evenodd" />
      <path
         id="path888"
         d="m 573.3747,287.84387 c -9.77443,32.88322 -114.58736,67.83216 -231.63954,61.89975 -125.17628,0 -223.51543,-33.47067 -223.51543,-61.89975 6.50211,-22.49023 103.21926,-51.50032 228.39557,-51.50032 125.17628,0 220.24311,27.52537 226.7594,51.50032 z"
         style="fill:#fbd900;fill-opacity:0.75;fill-rule:evenodd;stroke-linecap:round"
         inkscape:connector-curvature="0" />
      <path
         id="path863"
         d="m 174.1464,777.60664 c 0,-96.50658 -47.61841,-520.33503 -94.308963,-615.47952 29.712813,47.34954 184.573583,61.18967 256.868843,59.23371 82.04137,2.49175 246.93864,-8.53388 287.87786,-64.63681 -59.8506,90.85819 -128.37069,497.52202 -127.66948,615.46017 10.45439,33.37384 -114.13404,46.86539 -170.48567,46.9945 -49.84953,0.19355 -140.70203,-10.32846 -152.28259,-41.57205 z"
         inkscape:connector-curvature="0"
         style="fill:#e6ffff;fill-opacity:0.1;fill-rule:evenodd" />
      <path
         id="path930"
         d="m 178.59447,782.89997 c 16.06404,53.25614 314.33958,54.61175 318.72393,0 1.45908,-37.24702 -277.83429,-58.54947 -318.72393,0 z"
         inkscape:connector-curvature="0"
         style="fill:none;stroke:#000000;stroke-width:6.76182175pt" />
      <path
         id="path865"
         d="m 174.62804,777.34843 c 0,-96.50659 -41.1163,-391.21634 -61.7984,-495.26268 29.71281,47.34954 168.31831,64.15264 227.60225,62.1967 67.41515,2.49173 194.90757,-8.5339 235.84679,-64.63036 -24.08191,89.36703 -79.58359,374.2712 -78.88238,492.27388 7.91161,44.92881 -114.13404,46.8654 -170.48567,46.9945 -49.84952,0.19355 -140.70203,-10.32845 -152.28259,-41.57204 z"
         inkscape:connector-curvature="0"
         style="fill:#ffcc00;fill-opacity:0.775;fill-rule:evenodd" />
      <path
         id="path924"
         d="m 352.03238,87.678077 c -151.55305,0 -274.689472,30.546433 -274.689472,68.387323 0,3.69243 2.174452,7.35904 4.426819,10.89653 46.442643,94.63455 93.572343,513.45373 94.075223,612.86519 -1.11201,1.16194 -2.5711,2.13024 -3.54145,3.42131 -11.38224,13.36244 -17.94102,32.72831 -13.06089,44.54149 8.1241,22.27074 100.81816,46.02621 178.84352,46.02621 91.02956,0 173.89253,-29.69433 180.39466,-46.02621 3.25104,-11.81318 -5.00055,-26.72489 -16.3828,-44.54149 -0.31162,-0.71008 -1.14032,-1.35562 -1.55114,-2.00115 -0.085,-1.42016 -1.06952,-2.7112 -1.77073,-4.06682 -0.0284,-0.0645 0.0355,-0.12903 0,-0.19355 -0.70121,-117.93812 67.90387,-524.62138 127.68363,-615.47312 -0.77912,1.11678 0,-2.57565 0,-5.44826 0,-37.84089 -122.88142,-68.387333 -274.42737,-68.387333 z"
         inkscape:connector-curvature="0"
         style="fill:#bfbfbf;fill-opacity:0.1;fill-rule:evenodd;stroke:#000000;stroke-width:8.36775398;stroke-linejoin:round" />
      <path
         id="path926"
         d="m 116.40651,289.96765 c 2.72692,-19.86937 136.25396,-54.63758 220.73184,-52.15228 83.11088,2.48527 231.63243,22.34821 238.43204,50.91287 6.79959,28.55819 -156.68108,59.60168 -232.98528,60.84754 -80.38396,-1.24586 -213.911,-26.07937 -226.1786,-59.60813 z"
         style="fill:none;stroke:#000000;stroke-width:6.76182175pt;stroke-linecap:round"
         inkscape:connector-curvature="0" />
      <path
         id="path929"
         d="M 119.5584,290.30978 79.709946,157.1759 C 185.95361,48.236437 586.5489,94.637057 613.18064,153.13489 604.25617,199.5355 575.49956,274.17155 566.64592,300.39941 478.1237,344.7795 230.2218,377.05595 119.5584,290.30978 Z"
         style="fill:#ffffff;fill-rule:evenodd;stroke-linecap:round"
         inkscape:connector-curvature="0" />
      <g
         id="g943"
         transform="matrix(7.0829111,0,0,6.4552888,272.28013,22.015047)"
         style="stroke:#000000">
        <path
           id="path939"
           d="m 8.3438,62.312 c -10.216,0.001 -18.621,7.217 -20.344,16.532 -0.092,0.468 -0.111,0.945 -0.156,1.437 -0.075,0.689 -0.219,1.357 -0.219,2.063 0,1.861 0.376,3.624 0.875,5.344 0.097,0.375 0.13,1.161 0.219,1.406 l 0.219,0 c 2.8755,7.689 10.422,13.346 19.406,13.346 11.469,0 20.687,-9.143 20.687,-20.096 0,-1.017 -0.159,-1.99 -0.312,-2.969 -0.029,-0.23 -0.026,-0.465 -0.063,-0.687 -0.118,-0.612 -0.325,-1.19 -0.5,-1.782 -0.108,-0.317 -0.147,-0.732 -0.281,-1 l -0.031,0 c -2.785,-7.84 -10.395,-13.594 -19.5,-13.594 z"
           inkscape:connector-curvature="0"
           style="fill:url(#linearGradient838);fill-rule:evenodd;stroke-width:1.25;stroke-linejoin:round"
           sodipodi:nodetypes="cccscccsscccccc" />
        <g
           id="g4874"
           transform="matrix(0.1,0,0,-0.1,-3091.9781,423.88879)"
           style="fill:#000000;stroke:none">
          <g
             id="g4970"
             transform="matrix(0.01323541,0,0,0.01563412,30839.034,3215.4247)">
            <path
               inkscape:connector-curvature="0"
               d="m 18788,18214 c -3,-3 -52,-7 -109,-10 -57,-3 -117,-7 -134,-10 -16,-3 -43,-7 -60,-10 -16,-3 -73,-6 -125,-6 -52,0 -97,-4 -100,-9 -3,-4 -31,-9 -63,-10 -31,-1 -57,-6 -57,-10 0,-5 -15,-6 -32,-4 -88,11 -201,15 -211,7 -8,-6 -38,-6 -81,0 -38,5 -76,6 -85,1 -20,-9 -71,-12 -226,-11 -169,1 -185,1 -330,-6 -283,-12 -630,-21 -695,-16 -63,4 -175,-12 -183,-26 -4,-8 -25,-14 -45,-14 -21,0 -46,-6 -57,-14 -11,-7 -36,-16 -55,-19 -59,-8 -90,-25 -90,-47 0,-11 -7,-23 -15,-26 -8,-4 -15,-15 -15,-25 0,-10 -4,-19 -9,-19 -18,0 -78,-107 -90,-160 -7,-30 -19,-74 -26,-97 -8,-24 -10,-45 -6,-48 5,-3 6,-40 4,-82 -7,-100 -5,-173 5,-187 4,-6 6,-117 4,-246 -5,-345 -4,-406 4,-500 5,-47 8,-92 9,-102 0,-9 3,-20 8,-24 11,-11 9,-62 -3,-69 -6,-3 -8,-16 -5,-28 3,-12 6,-31 6,-42 0,-20 -1,-29 -15,-111 -4,-24 -3,-60 4,-83 15,-58 19,-114 8,-128 -6,-7 -3,-25 6,-47 14,-34 14,-36 -6,-47 -11,-6 -17,-14 -12,-18 5,-3 9,-57 9,-119 0,-63 3,-119 7,-125 4,-6 2,-17 -3,-23 -7,-8 -5,-35 6,-79 10,-44 13,-86 9,-119 -10,-75 -20,-97 -41,-89 -15,5 -14,2 5,-19 12,-13 22,-35 22,-49 0,-13 4,-38 9,-55 5,-18 5,-51 0,-76 -11,-63 -13,-142 -6,-215 4,-38 3,-64 -3,-68 -6,-4 -8,-11 -4,-16 3,-6 8,-52 11,-102 3,-51 9,-98 15,-104 7,-9 6,-15 -5,-19 -21,-8 -31,-42 -18,-58 17,-20 21,-180 5,-224 -8,-25 -10,-51 -5,-74 5,-19 7,-68 5,-107 -2,-40 1,-84 7,-99 7,-18 6,-34 -2,-54 -14,-33 -16,-93 -5,-163 9,-58 16,-113 17,-135 2,-29 -9,-135 -16,-152 -4,-10 -2,-32 4,-49 8,-23 8,-36 0,-45 -20,-24 -10,-168 15,-209 7,-11 10,-31 6,-45 -5,-17 1,-39 17,-68 13,-24 21,-48 18,-53 -4,-5 -1,-9 4,-9 6,0 24,-14 41,-31 17,-18 46,-35 67,-40 21,-4 65,-15 98,-24 56,-16 102,-16 253,-3 7,1 20,14 27,28 8,15 21,30 29,33 10,4 13,13 9,24 -5,16 -4,16 9,-1 14,-18 20,-19 72,-7 31,7 54,16 51,21 -3,5 -1,11 5,15 5,3 10,16 10,29 0,12 6,28 12,34 10,10 13,106 13,392 0,208 3,382 7,385 9,9 -24,64 -42,69 -9,2 -6,4 6,5 25,1 39,38 22,58 -7,9 -7,13 1,13 8,0 10,11 6,33 -13,69 -12,148 1,155 9,5 10,18 4,52 -11,56 -31,320 -25,330 2,4 7,27 10,51 3,24 10,45 15,47 5,2 -4,21 -21,42 -17,21 -29,46 -28,56 2,11 0,25 -4,32 -5,6 -5,18 -1,24 5,7 9,31 9,53 3,71 17,139 36,167 11,14 19,38 19,53 0,18 6,29 20,32 11,3 20,9 20,14 0,5 8,9 19,9 10,0 24,7 31,15 9,11 32,15 79,15 37,0 72,5 78,11 7,7 30,8 74,1 41,-6 71,-6 85,0 15,7 28,6 43,-1 16,-9 26,-9 42,0 26,14 487,26 725,18 44,-1 85,1 91,4 15,10 482,7 488,-3 3,-4 20,-4 39,0 19,4 75,5 124,2 112,-6 154,6 176,53 9,19 15,38 14,43 -2,6 18,33 45,61 31,34 47,60 47,78 0,14 7,34 15,43 17,19 22,81 10,120 -4,14 -9,51 -12,83 -3,31 -9,57 -14,57 -5,0 -18,20 -29,44 -21,44 -52,66 -94,66 -25,0 -50,23 -60,56 -10,32 -59,74 -86,74 -608,-7 -741,-9 -945,-21 -187,-11 -218,-11 -545,-5 -363,7 -383,7 -428,17 -24,5 -69,27 -100,48 -32,21 -74,46 -94,55 -20,10 -39,25 -43,34 -4,9 -8,62 -10,117 -1,55 -8,113 -14,128 -6,16 -8,34 -5,39 10,16 3,132 -8,143 -3,3 -1,25 4,48 11,48 8,106 -5,124 -5,7 -6,17 -2,23 4,6 7,36 6,65 0,30 4,57 9,60 6,4 4,18 -5,35 -21,41 -19,116 6,180 11,30 24,66 28,80 4,14 12,25 18,25 13,0 63,47 63,60 0,14 121,55 160,55 17,0 40,5 51,11 11,5 88,12 172,15 200,6 277,11 284,18 10,10 63,7 84,-4 11,-6 19,-7 19,-1 0,5 48,8 118,5 64,-2 146,-3 182,-2 75,2 208,1 365,-2 61,-2 153,1 205,6 52,4 120,7 150,6 30,-2 62,-3 70,-3 27,-1 445,0 465,1 11,1 46,2 78,3 31,1 57,5 57,9 0,5 6,8 14,8 21,0 25,23 7,38 -14,12 -12,13 11,8 15,-4 30,-1 34,5 3,6 22,17 41,25 18,8 31,19 28,24 -3,5 4,14 15,20 11,6 18,16 14,22 -4,6 1,8 15,3 19,-6 21,-2 21,27 0,19 5,39 12,46 17,17 15,185 -2,217 -11,21 -11,32 -2,59 7,18 12,40 12,50 0,24 -63,86 -87,86 -10,0 -29,7 -41,16 -33,23 -163,76 -197,80 -70,9 -81,11 -102,22 -23,13 -56,16 -65,6 z m 379,-160 c -9,-9 -28,6 -21,18 4,6 10,6 17,-1 6,-6 8,-13 4,-17 z m -1357,-103 c 0,-5 10,-11 22,-14 12,-4 19,-9 15,-13 -3,-4 -21,3 -39,15 -22,14 -27,21 -15,21 9,0 17,-4 17,-9 z m -484,-48 c -8,-8 -36,5 -36,17 0,7 6,7 21,0 11,-7 18,-14 15,-17 z m 1364,2 c 26,-27 16,-33 -16,-10 -28,19 -100,9 -83,-11 17,-21 -11,-18 -38,4 -23,17 -22,17 23,19 24,1 53,7 62,12 24,14 26,14 52,-14 z m -520,-5 c 0,-10 -47,-30 -69,-30 -10,0 -28,8 -40,18 -21,17 -20,17 44,18 36,0 65,-2 65,-6 z m -190,-10 c 0,-5 -10,-10 -22,-10 -19,0 -20,2 -8,10 19,13 30,13 30,0 z m 230,-6 c 0,-2 -7,-4 -15,-4 -8,0 -15,4 -15,10 0,5 7,7 15,4 8,-4 15,-8 15,-10 z m 994,10 c 24,-9 8,-32 -19,-26 -15,2 -22,9 -18,18 6,15 13,17 37,8 z m -2177,-27 c -3,-9 10,-13 52,-15 135,-4 211,-23 211,-52 0,-14 8,-17 41,-14 30,2 47,-3 65,-19 22,-19 23,-22 7,-28 -10,-3 -36,-1 -58,4 -22,5 -49,11 -60,12 -11,1 -31,7 -45,13 -14,6 -54,19 -89,27 -54,14 -143,48 -161,62 -5,5 21,23 34,23 4,0 6,-6 3,-13 z m -7,-54 c 49,-21 53,-25 36,-35 -14,-8 -28,-8 -53,1 -18,7 -46,11 -61,10 -34,-3 -122,20 -122,32 0,5 12,9 28,9 15,0 34,5 42,10 19,13 60,4 130,-27 z m 1510,5 c 0,-4 0,-11 0,-15 0,-5 -4,-8 -10,-8 -5,0 -16,-9 -24,-20 -16,-20 -16,-20 -22,2 -4,13 -11,20 -20,16 -8,-3 -14,0 -14,5 0,6 -8,13 -17,15 -12,3 -8,7 15,12 18,4 35,11 38,16 6,10 54,-10 54,-23 z m -837,-28 c 10,0 16,-4 12,-10 -4,-6 -16,-5 -33,1 -18,7 -28,7 -30,0 -2,-6 -8,-11 -14,-11 -6,0 -3,9 7,20 13,14 22,17 29,10 5,-5 18,-10 29,-10 z m 955,8 c 15,-15 -4,-39 -26,-31 -36,11 -61,26 -56,35 8,12 68,10 82,-4 z m -317,-8 c 5,0 9,-6 9,-14 0,-8 6,-16 13,-19 6,-2 9,-7 6,-10 -3,-4 -21,7 -40,24 -20,18 -26,28 -16,25 10,-3 23,-6 28,-6 z m -2323,-63 32,-24 -35,-19 c -41,-22 -62,-10 -49,27 4,13 7,27 6,32 -4,13 14,7 46,-16 z m 981,-15 c 11,-11 9,-12 -14,-6 -24,6 -27,4 -22,-10 8,-19 -4,-21 -21,-4 -10,10 -14,8 -18,-10 -8,-29 -41,-29 -66,0 -14,16 -15,23 -6,29 7,4 15,6 19,3 4,-2 10,-1 12,3 9,14 101,10 116,-5 z m 121,-28 c 0,-2 -12,-4 -27,-4 -21,0 -24,3 -14,9 13,8 41,5 41,-5 z m 1725,-34 c 41,-21 39,-44 -5,-50 -39,-7 -60,-2 -60,12 0,5 3,7 8,5 4,-3 13,1 20,9 10,11 10,14 0,15 -7,0 -22,3 -33,5 -11,2 -33,6 -50,8 -16,2 -36,4 -42,5 -25,2 -12,21 15,22 15,0 36,4 47,9 13,5 28,3 45,-8 14,-9 39,-23 55,-32 z m -2137,15 c 11,-13 22,-22 25,-18 9,8 97,-26 97,-38 0,-5 -6,-9 -12,-9 -7,0 -22,-3 -34,-6 -13,-3 -28,1 -38,11 -12,13 -20,14 -30,6 -15,-12 -46,-5 -46,11 0,5 -4,7 -9,3 -6,-3 -4,-16 4,-32 16,-30 12,-43 -12,-43 -9,0 -24,-7 -33,-15 -10,-9 -24,-13 -33,-10 -12,5 -13,13 -5,42 9,32 1,64 -9,36 -7,-19 -15,-16 -50,16 -23,21 -29,31 -20,40 16,16 30,14 55,-9 22,-21 52,-18 52,5 0,8 8,11 21,8 13,-4 18,-11 14,-21 -5,-13 -2,-12 14,2 11,10 17,24 14,32 -9,23 14,16 35,-11 z m 327,15 c -3,-5 -10,-10 -16,-10 -5,0 -9,5 -9,10 0,6 7,10 16,10 8,0 12,-4 9,-10 z m -828,-24 c 1,-1 0,-11 -3,-23 -8,-30 -44,-19 -44,14 0,21 3,23 23,17 12,-3 23,-7 24,-8 z m 1060,8 c -3,-3 -12,-4 -19,-1 -8,3 -5,6 6,6 11,1 17,-2 13,-5 z m 546,-45 c -12,-12 -53,1 -53,17 0,10 6,11 31,2 17,-6 27,-14 22,-19 z m -1516,1 c -3,-12 -1,-20 6,-19 33,4 40,-1 22,-15 -17,-12 -24,-12 -47,0 -37,19 -38,54 -2,54 22,0 25,-4 21,-20 z m 1728,10 c -3,-5 -14,-10 -23,-9 -14,0 -13,2 3,9 27,11 27,11 20,0 z m 193,-15 c -3,-3 -13,-2 -22,1 -14,5 -15,9 -4,15 13,8 36,-6 26,-16 z m -308,-21 c 0,-8 -4,-12 -10,-9 -5,3 -10,10 -10,16 0,5 5,9 10,9 6,0 10,-7 10,-16 z m 30,-18 c 0,-3 -4,-8 -10,-11 -5,-3 -10,-1 -10,4 0,6 5,11 10,11 6,0 10,-2 10,-4 z m -907,-40 c 7,8 57,-22 57,-34 0,-16 -71,1 -81,19 -5,11 -17,19 -25,19 -8,0 -12,4 -9,10 4,6 15,4 29,-5 12,-8 25,-12 29,-9 z m 605,15 c 24,-15 -20,-19 -48,-4 l -25,13 30,0 c 17,0 36,-4 43,-9 z m -453,-21 c 1,-8 -4,-18 -10,-22 -6,-5 -6,-8 2,-8 6,0 18,6 25,13 7,8 19,12 26,10 23,-8 -15,-33 -51,-33 -27,0 -36,5 -40,22 -4,13 -1,26 6,30 18,12 42,5 42,-12 z m 394,-4 c -15,-13 -49,-25 -49,-17 0,5 8,12 18,14 24,6 36,8 31,3 z m -1069,-1735 c 0,-5 12,-12 28,-17 17,-5 21,-9 11,-11 -21,-5 -69,14 -69,27 0,5 7,10 15,10 8,0 15,-4 15,-9 z m 145,-11 c 3,-5 -1,-10 -9,-10 -9,0 -16,5 -16,10 0,6 4,10 9,10 6,0 13,-4 16,-10 z m 91,-40 c 8,0 14,-4 14,-10 0,-11 -30,-13 -54,-4 -9,3 -13,10 -10,16 3,5 13,7 21,4 8,-3 21,-6 29,-6 z m 169,-35 c 27,-22 28,-25 10,-31 -11,-5 -20,-3 -23,4 -2,7 -8,10 -13,6 -5,-3 -18,-2 -29,1 -16,5 -18,10 -10,26 14,25 28,24 65,-6 z m -248,-64 c 32,-62 32,-63 15,-98 -16,-34 -35,-45 -38,-23 -1,6 -2,11 -3,13 -2,1 -5,19 -7,40 -3,22 -11,57 -19,80 -8,22 -12,45 -9,49 12,18 30,0 61,-61 z m 520,63 c -3,-3 -12,-4 -19,-1 -8,3 -5,6 6,6 11,1 17,-2 13,-5 z m 63,-4 c 0,-5 14,-10 30,-10 17,0 30,-5 30,-11 0,-5 -8,-9 -17,-7 -10,1 -24,-1 -30,-5 -9,-5 -13,-3 -13,7 0,9 -9,16 -20,16 -11,0 -20,5 -20,10 0,6 9,10 20,10 11,0 20,-4 20,-10 z m 223,-41 c 37,-13 50,-29 22,-29 -21,0 -85,32 -85,43 0,5 6,7 13,4 6,-2 29,-10 50,-18 z m 703,10 c 7,-12 -15,-31 -28,-23 -4,3 -8,12 -8,20 0,17 26,19 36,3 z m 103,-3 c 9,-11 6,-12 -15,-8 -19,3 -22,7 -12,13 16,11 14,11 27,-5 z m -414,-4 c 6,-4 10,-16 10,-27 0,-17 -6,-19 -38,-17 -27,3 -37,0 -37,-11 0,-21 -29,-30 -36,-12 -4,8 -10,15 -16,15 -11,0 -42,29 -36,35 2,2 33,8 68,13 36,5 67,10 70,11 3,0 10,-3 15,-7 z m 215,-4 c 0,-15 -89,-12 -104,3 -6,5 13,8 47,6 31,-1 57,-5 57,-9 z m 607,-8 c 10,0 0,-19 -12,-24 -8,-3 -14,0 -12,7 1,8 -10,11 -30,11 -18,-1 -33,2 -33,6 0,14 23,17 55,8 16,-4 31,-8 32,-8 z m -1076,0 c 38,0 49,-4 49,-16 0,-13 -9,-14 -57,-8 -32,3 -61,8 -65,11 -15,8 -8,25 8,19 9,-3 38,-6 65,-6 z m 349,3 c 0,-5 -8,-17 -16,-28 -11,-14 -18,-16 -21,-7 -3,6 -11,12 -19,12 -8,0 -11,6 -8,15 6,15 64,22 64,8 z m -1376,-85 c -3,-10 0,-18 6,-18 6,0 8,-4 5,-10 -8,-14 -48,-13 -63,2 -8,8 -7,18 5,39 14,23 19,25 35,16 11,-7 16,-19 12,-29 z m 1526,30 c 30,1 57,-17 57,-38 0,-13 -10,-15 -56,-9 -90,11 -111,19 -111,41 0,19 4,20 43,13 23,-4 53,-7 67,-7 z m 225,-28 c 3,-5 -2,-10 -13,-10 -10,0 -24,-11 -30,-25 -6,-14 -15,-25 -20,-25 -10,0 -47,39 -41,43 32,24 94,34 104,17 z m -925,-14 c 0,-23 -12,-25 -65,-11 l -50,13 35,4 c 69,9 80,8 80,-6 z m 44,0 c -4,-10 5,-15 31,-18 30,-3 34,-2 21,7 -9,7 -16,16 -16,20 0,10 142,-5 157,-17 7,-5 17,-7 23,-3 5,3 10,0 10,-8 0,-21 -12,-28 -27,-16 -10,9 -13,8 -13,0 0,-29 -23,-38 -59,-25 -20,7 -46,13 -58,14 -12,0 -25,5 -28,10 -3,6 -15,10 -25,10 -21,0 -34,15 -25,30 9,15 15,12 9,-4 z m 1003,8 c -3,-3 -12,-4 -19,-1 -8,3 -5,6 6,6 11,1 17,-2 13,-5 z m -619,-26 c 32,1 42,-2 39,-11 -3,-9 6,-14 27,-15 17,-2 38,-10 46,-19 14,-14 13,-15 -5,-8 -11,5 -33,8 -49,7 -16,-1 -35,3 -42,9 -6,5 -36,12 -65,15 -76,8 -84,11 -70,28 10,11 19,12 44,3 18,-6 52,-10 75,-9 z m 191,-7 c 20,-13 -3,-23 -33,-15 -14,3 -23,10 -20,15 7,11 35,11 53,0 z m -609,-21 c 0,-5 -4,-10 -9,-10 -6,0 -13,5 -16,10 -3,6 1,10 9,10 9,0 16,-4 16,-10 z m -147,-15 c 81,-9 89,-25 13,-25 -60,0 -106,13 -106,31 0,6 6,9 13,6 8,-3 44,-8 80,-12 z m 1167,-85 c 0,-5 -20,-7 -45,-5 -25,3 -45,1 -45,-4 0,-5 -7,-12 -16,-15 -19,-7 -64,3 -64,14 0,9 85,26 107,22 6,-2 14,2 18,8 7,12 45,-5 45,-20 z m -709,-11 c 11,-5 39,-11 61,-11 23,0 48,-7 56,-15 10,-10 23,-12 41,-7 14,4 38,8 52,9 14,1 30,4 35,7 23,14 75,18 93,8 23,-12 29,-32 9,-29 -7,1 -21,-1 -31,-6 -10,-4 -40,-5 -68,-2 -27,3 -49,2 -49,-3 0,-10 -102,-2 -110,9 -4,5 -57,7 -98,2 -9,-1 -11,-9 -7,-23 5,-17 4,-19 -3,-9 -6,8 -19,12 -31,8 -12,-3 -21,-2 -21,2 0,4 -7,8 -15,8 -8,0 -15,-5 -15,-11 0,-6 -5,-5 -12,2 -15,15 -42,16 -32,1 4,-7 0,-9 -12,-6 -11,3 -34,8 -52,12 -52,11 -30,20 47,20 39,0 71,4 71,9 0,4 11,6 24,4 18,-4 26,0 29,14 6,21 11,22 38,7 z m -691,-9 c 0,-5 -2,-10 -4,-10 -3,0 -8,5 -11,10 -3,6 -1,10 4,10 6,0 11,-4 11,-10 z m 1126,-12 c 9,-30 -1,-32 -30,-5 l -26,25 25,0 c 15,0 27,-8 31,-20 z m -1026,-18 c 12,-8 12,-10 -5,-10 -11,0 -27,5 -35,10 -12,8 -12,10 5,10 11,0 27,-5 35,-10 z m 110,0 c 0,-5 9,-10 20,-10 20,0 20,0 0,-20 -23,-23 -34,-26 -27,-6 4,10 -4,18 -24,25 -37,13 -37,21 1,21 17,0 30,-4 30,-10 z m 130,0 c 0,-5 -12,-10 -26,-10 -14,0 -23,4 -19,10 3,6 15,10 26,10 10,0 19,-4 19,-10 z m 1390,-12 c 0,-17 -3,-19 -12,-10 -17,17 -33,15 -19,-2 10,-12 9,-13 -8,-9 -12,3 -17,11 -14,19 3,8 1,14 -3,14 -14,0 -40,-20 -29,-21 6,0 -1,-4 -14,-8 -32,-9 -92,-1 -85,10 3,5 16,9 30,9 13,0 24,4 24,9 0,4 29,9 65,10 61,2 65,0 65,-21 z m -1756,3 c 4,-5 -3,-7 -14,-4 -23,6 -26,13 -6,13 8,0 17,-4 20,-9 z m -348,-92 c 10,-11 14,-19 9,-18 -6,1 -18,-1 -28,-6 -25,-10 -31,-1 -15,24 7,12 13,21 14,21 0,0 9,-9 20,-21 z m -56,-1039 c 8,-5 12,-11 10,-14 -8,-7 -60,6 -60,15 0,12 31,11 50,-1 z m -45,-160 c 3,-5 1,-10 -4,-10 -6,0 -11,5 -11,10 0,6 2,10 4,10 3,0 8,-4 11,-10 z m -385,-46 c 0,-13 -4,-24 -10,-24 -5,0 -10,9 -10,20 0,11 -6,20 -12,20 -9,0 -8,3 2,9 19,13 30,4 30,-25 z m 3,-56 c 7,-25 0,-41 -14,-33 -12,8 -12,55 0,55 5,0 11,-10 14,-22 z m 9,-100 c -15,-15 -27,14 -17,40 6,15 8,15 18,-6 7,-16 7,-26 -1,-34 z m 1,-64 c -6,-15 -7,-15 -15,5 -10,28 1,51 13,28 5,-8 6,-23 2,-33 z m 424,-290 c -3,-3 -12,-4 -19,-1 -8,3 -5,6 6,6 11,1 17,-2 13,-5 z m -497,-456 c 0,-5 -4,-8 -10,-8 -5,0 -10,10 -10,23 0,18 2,19 10,7 5,-8 10,-18 10,-22 z m 173,-5 c -7,-2 -21,-2 -30,0 -10,3 -4,5 12,5 17,0 24,-2 18,-5 z"
               id="path4878" />
            <path
               inkscape:connector-curvature="0"
               d="m 2304,18160 c -12,-5 -70,-11 -129,-14 -58,-3 -113,-10 -120,-16 -8,-6 -36,-13 -62,-14 -26,-1 -58,-7 -70,-14 -12,-7 -29,-12 -37,-12 -9,0 -16,-4 -16,-9 0,-5 -23,-12 -52,-16 -28,-4 -60,-16 -72,-26 -11,-11 -28,-19 -38,-19 -10,0 -18,-4 -18,-10 0,-5 -9,-10 -19,-10 -11,0 -23,-4 -26,-10 -3,-5 -17,-10 -30,-10 -13,0 -36,-11 -51,-25 -15,-14 -31,-25 -36,-25 -5,0 -25,-7 -46,-17 -20,-9 -40,-17 -44,-17 -3,-1 -10,-4 -14,-8 -4,-5 -14,-8 -21,-8 -8,0 -28,-13 -44,-30 -16,-16 -57,-44 -90,-61 -76,-41 -316,-283 -333,-336 -3,-10 -19,-27 -36,-36 -16,-10 -30,-24 -30,-30 0,-7 -4,-6 -10,3 -7,11 -8,7 -4,-15 4,-22 -1,-39 -20,-64 -14,-19 -26,-40 -26,-47 0,-7 -8,-15 -18,-19 -20,-6 -42,-44 -42,-72 0,-9 -11,-26 -24,-38 -14,-13 -23,-25 -20,-27 8,-9 -17,-66 -32,-72 -10,-4 -11,-11 -4,-31 7,-19 6,-25 -4,-25 -10,0 -16,-19 -21,-65 -6,-50 -13,-70 -33,-90 -24,-24 -24,-26 -8,-44 13,-14 15,-24 8,-38 -5,-10 -12,-38 -15,-63 -7,-61 -26,-120 -38,-120 -6,0 -7,-6 -2,-12 9,-15 5,-142 -5,-145 -4,-2 -6,-40 -5,-85 2,-55 -2,-91 -12,-110 -12,-26 -12,-33 2,-63 16,-33 15,-34 -14,-72 -28,-36 -29,-39 -12,-55 14,-13 16,-24 9,-46 -5,-20 -4,-34 3,-42 9,-10 9,-14 0,-17 -30,-11 -49,-86 -47,-193 1,-58 5,-113 8,-122 4,-9 2,-26 -4,-38 -18,-34 -23,-99 -9,-131 9,-23 9,-32 -1,-43 -21,-26 -15,-212 7,-220 10,-4 10,-11 2,-33 -6,-15 -13,-39 -15,-53 -8,-69 -15,-89 -28,-84 -8,3 -17,1 -21,-5 -3,-6 0,-11 8,-11 27,0 38,-25 29,-67 -7,-29 -6,-42 3,-49 7,-5 16,-19 20,-32 5,-16 2,-24 -12,-28 -10,-3 -31,-12 -48,-19 -16,-8 -42,-17 -57,-20 -38,-10 -23,-28 17,-22 27,5 38,0 58,-23 14,-15 23,-31 20,-34 -3,-3 -1,-12 6,-19 9,-11 8,-17 -3,-26 -11,-9 -12,-18 -2,-44 6,-18 19,-41 29,-51 9,-11 18,-27 18,-35 1,-9 2,-27 4,-41 4,-60 17,-91 41,-100 27,-10 33,-30 9,-30 -8,0 -15,-4 -15,-10 0,-5 7,-10 16,-10 11,0 14,-8 12,-32 -2,-20 3,-37 12,-44 11,-9 12,-17 3,-36 -10,-22 -8,-27 18,-42 16,-9 29,-25 29,-35 0,-10 8,-36 17,-57 9,-22 18,-59 20,-84 5,-58 10,-73 24,-64 7,4 7,-1 -1,-16 -10,-20 -10,-21 8,-16 16,5 22,0 30,-24 6,-16 18,-30 26,-30 9,0 16,-9 16,-20 0,-11 6,-20 14,-20 17,0 76,-59 76,-77 0,-7 4,-13 10,-13 5,0 12,-11 16,-25 3,-13 11,-23 17,-22 6,1 15,-14 21,-33 6,-19 18,-36 26,-38 22,-5 37,-22 20,-22 -8,0 1,-14 20,-31 127,-115 188,-181 203,-222 4,-12 15,-18 29,-16 26,2 51,-8 123,-51 28,-17 62,-35 78,-41 15,-6 27,-15 27,-20 0,-5 5,-9 12,-9 6,0 30,-8 52,-19 23,-10 56,-24 74,-31 17,-7 32,-16 32,-21 0,-5 6,-9 13,-9 7,0 18,-5 25,-12 6,-6 22,-13 34,-15 13,-2 32,-7 43,-12 11,-5 56,-16 100,-26 83,-17 175,-41 210,-53 23,-9 273,-8 425,2 100,6 259,38 270,55 3,5 30,14 60,21 30,8 60,17 65,21 6,3 36,14 68,24 31,10 57,21 57,24 0,4 29,18 65,32 36,13 65,27 65,30 0,4 15,13 33,20 29,12 109,65 181,121 16,13 43,29 59,37 30,15 87,67 87,80 0,4 18,23 40,42 22,19 58,60 80,91 41,59 58,81 97,123 11,13 38,57 58,97 20,40 44,81 53,90 9,12 16,42 18,84 1,36 8,72 15,80 7,8 7,14 1,14 -12,0 -23,38 -12,45 13,8 -1,53 -25,75 -13,12 -41,24 -63,27 -33,4 -43,11 -53,35 -7,16 -29,48 -51,70 -21,22 -38,45 -38,51 0,17 -40,41 -70,43 -29,1 -110,-34 -110,-47 0,-5 -6,-9 -13,-9 -7,0 -56,-46 -108,-101 -149,-160 -236,-249 -243,-249 -9,0 -125,-79 -156,-105 -14,-12 -41,-28 -60,-35 -19,-7 -46,-23 -60,-35 -27,-23 -117,-64 -158,-71 -14,-3 -35,-10 -46,-16 -24,-14 -28,-15 -121,-22 -38,-4 -92,-9 -120,-13 -72,-10 -296,-7 -304,4 -3,5 -35,10 -70,11 -35,2 -73,7 -84,13 -11,6 -36,12 -56,14 -112,9 -277,64 -329,109 -15,13 -37,33 -49,43 -30,26 -83,128 -87,167 -2,18 -10,48 -19,66 -10,18 -17,44 -17,57 0,12 -9,32 -20,43 -11,11 -18,20 -15,20 2,0 -3,19 -11,42 -8,23 -12,48 -10,55 3,7 1,13 -3,13 -12,0 -55,70 -57,92 -1,10 -9,29 -18,44 -10,14 -19,50 -21,80 -2,29 -6,58 -10,64 -4,6 -8,35 -9,63 -2,30 -12,71 -25,96 -28,54 -31,67 -35,164 -3,53 -9,86 -22,105 -19,29 -26,130 -9,135 6,2 5,14 -3,31 -7,16 -9,33 -4,40 9,12 9,62 -1,86 -12,32 -19,78 -22,146 -3,39 -5,75 -6,80 -4,24 2,54 15,67 9,8 11,19 6,27 -4,7 -6,19 -3,27 3,8 0,13 -8,11 -18,-4 -25,58 -9,77 6,8 11,24 10,37 -1,13 -1,25 0,28 3,8 10,97 13,167 2,34 6,65 10,69 10,11 8,26 -3,19 -6,-3 -6,5 -1,22 15,50 32,179 25,196 -3,9 -3,25 2,35 4,9 8,20 8,24 1,3 4,9 8,13 4,4 3,18 -2,31 -5,13 -6,24 -2,24 4,0 13,15 21,33 7,17 19,46 27,64 8,17 14,38 14,46 0,8 6,17 13,20 6,2 20,27 30,54 10,27 36,71 57,97 22,27 43,59 46,72 3,13 9,24 13,24 15,0 81,74 81,90 0,9 8,25 19,36 18,20 18,21 -3,35 -11,8 -28,17 -36,20 -11,5 -5,11 20,22 19,8 38,13 43,10 15,-9 77,-10 77,-2 0,5 3,8 8,8 23,-4 42,3 42,15 0,8 5,16 12,18 8,3 9,12 0,36 -14,40 -7,60 23,68 22,5 67,44 51,44 -13,0 59,56 94,72 58,28 162,60 210,64 25,3 95,12 155,20 99,14 114,14 155,0 40,-14 47,-14 77,1 25,12 39,13 63,4 31,-10 59,-6 72,13 5,7 8,6 8,-2 0,-21 26,-42 37,-31 5,5 18,7 27,3 13,-5 14,-9 5,-14 -8,-6 2,-15 29,-29 22,-11 44,-26 48,-32 5,-8 9,-7 14,2 7,10 12,10 25,-1 10,-8 25,-19 35,-25 10,-5 40,-22 66,-37 25,-16 57,-28 70,-28 13,0 24,-5 24,-11 0,-5 4,-7 10,-4 6,3 7,-1 4,-9 -4,-9 -1,-16 6,-16 7,0 33,-20 59,-44 77,-75 135,-129 184,-173 26,-22 47,-45 47,-50 0,-4 18,-25 41,-46 22,-21 39,-46 38,-55 -4,-29 110,-137 176,-166 33,-15 62,-30 65,-34 12,-17 68,-39 97,-40 18,0 40,-5 49,-10 42,-23 94,42 98,122 1,21 9,34 23,42 39,19 80,58 98,94 10,19 24,39 32,43 7,5 12,11 10,15 -3,4 -1,34 3,67 5,41 3,70 -7,92 -7,18 -10,39 -7,47 3,9 2,16 -3,16 -6,0 -18,19 -28,43 -30,73 -42,91 -78,117 -42,29 -80,76 -82,99 -1,9 -7,26 -13,38 -7,12 -12,29 -12,38 0,8 -15,31 -32,49 -90,92 -135,142 -139,153 -2,6 -39,41 -83,77 -43,36 -85,74 -93,86 -8,11 -20,20 -27,20 -7,0 -22,9 -34,20 -44,41 -127,87 -252,140 -41,18 -89,41 -106,51 -27,16 -117,32 -184,31 -14,0 -47,4 -75,9 -27,5 -68,11 -90,14 -22,2 -53,6 -70,9 -16,3 -56,8 -87,11 -32,4 -58,11 -58,16 0,11 -8,11 -36,-1 z m -594,-620 c 0,-16 -7,-20 -31,-20 -40,0 -21,27 29,39 1,1 2,-8 2,-19 z m 315,-10 c 3,-5 -1,-10 -9,-10 -9,0 -16,5 -16,10 0,6 4,10 9,10 6,0 13,-4 16,-10 z m 272,-36 c -3,-3 -12,-4 -19,-1 -8,3 -5,6 6,6 11,1 17,-2 13,-5 z m 138,-44 c 3,-5 1,-10 -4,-10 -6,0 -11,5 -11,10 0,6 2,10 4,10 3,0 8,-4 11,-10 z m 325,-105 c 0,-8 -2,-15 -4,-15 -2,0 -6,7 -10,15 -3,8 -1,15 4,15 6,0 10,-7 10,-15 z m 170,-95 c 6,-11 15,-18 21,-15 7,5 59,-18 98,-42 2,-1 -2,-9 -9,-18 -11,-13 -9,-15 14,-15 28,0 35,-14 11,-24 -18,-7 -45,2 -45,15 0,5 -11,14 -25,19 -14,5 -28,17 -31,25 -4,10 -13,13 -25,10 -15,-5 -19,-1 -19,17 0,13 -5,29 -12,36 -9,9 -9,12 0,12 6,0 16,-9 22,-20 z m -1910,-159 c 0,-5 -7,-14 -15,-21 -18,-15 -42,1 -31,19 8,13 46,15 46,2 z m 2145,-39 c -7,-8 -35,7 -35,18 0,6 7,6 20,-2 10,-7 17,-14 15,-16 z m 233,2 c 5,-9 11,-14 13,-13 2,2 15,-4 27,-13 23,-16 23,-17 5,-27 -14,-7 -23,-7 -32,2 -7,7 -17,12 -23,12 -6,0 -13,6 -16,14 -3,9 0,11 9,5 12,-6 12,-5 1,8 -7,9 -22,13 -37,10 -14,-2 -25,0 -25,5 0,17 69,14 78,-3 z M 1290,14060 c 0,-5 -4,-10 -9,-10 -6,0 -13,5 -16,10 -3,6 1,10 9,10 9,0 16,-4 16,-10 z m 1984,-196 c 20,-8 11,-24 -15,-24 -19,0 -25,11 -12,23 8,8 8,8 27,1 z m -69,-94 c 4,-6 -5,-24 -19,-41 -14,-17 -26,-35 -26,-40 0,-5 -4,-9 -10,-9 -19,0 -9,37 23,88 10,15 24,16 32,2 z m -1685,-530 c -29,-8 -40,-3 -21,10 8,4 21,5 30,2 12,-5 10,-8 -9,-12 z m 275,-70 c -3,-5 -14,-10 -23,-9 -14,0 -13,2 3,9 27,11 27,11 20,0 z"
               id="path4880" />
            <path
               inkscape:connector-curvature="0"
               d="m 6270,18128 c -59,-32 -161,-45 -210,-26 -46,17 -117,-1 -168,-43 -97,-81 -141,-128 -135,-145 2,-6 -8,-23 -22,-38 -14,-15 -25,-38 -25,-51 0,-13 -4,-26 -9,-29 -4,-3 -11,-28 -15,-55 -4,-28 -11,-53 -16,-56 -6,-4 -7,-13 -2,-22 5,-9 5,-35 -1,-62 -14,-71 -15,-85 -3,-104 8,-12 8,-22 -2,-35 -45,-62 -51,-130 -16,-197 10,-20 14,-56 13,-122 -1,-61 3,-98 11,-108 8,-9 10,-30 6,-57 -10,-65 -10,-89 -1,-131 5,-24 3,-42 -4,-51 -10,-11 -9,-56 0,-91 2,-6 -1,-30 -6,-55 -5,-25 -8,-51 -6,-57 1,-7 -2,-13 -7,-13 -6,0 -7,-15 -1,-38 14,-64 17,-114 10,-168 -5,-32 -3,-67 5,-93 7,-24 10,-66 7,-99 -8,-85 -4,-194 8,-208 7,-9 6,-19 -4,-36 -12,-18 -14,-49 -12,-133 2,-60 1,-113 -2,-118 -6,-10 -13,-177 -12,-307 0,-75 3,-102 14,-151 4,-16 1,-31 -8,-40 -12,-12 -12,-17 -1,-27 11,-10 12,-39 8,-129 -3,-65 -7,-120 -10,-124 -2,-4 3,-13 12,-20 14,-12 14,-14 -1,-25 -10,-7 -15,-19 -12,-27 3,-8 1,-20 -3,-27 -5,-8 -3,-19 6,-27 16,-17 19,-73 3,-73 -5,0 -8,-4 -4,-10 3,-5 0,-18 -7,-29 -11,-17 -10,-23 6,-34 11,-8 16,-18 13,-23 -3,-6 -2,-40 3,-76 4,-37 5,-94 1,-127 -4,-33 -3,-67 1,-76 5,-8 5,-22 -1,-32 -6,-12 -5,-26 5,-45 8,-15 16,-41 18,-58 2,-17 6,-33 9,-36 3,-4 1,-17 -4,-31 -6,-16 -6,-30 0,-37 6,-6 6,-18 2,-25 -5,-7 -6,-34 -3,-59 2,-26 4,-54 3,-62 -8,-93 -6,-465 2,-533 8,-64 8,-90 0,-98 -9,-9 -8,-16 3,-27 8,-8 13,-21 9,-29 -10,-27 18,-137 43,-171 18,-25 29,-32 45,-28 12,3 16,3 10,0 -7,-3 -13,-11 -13,-17 0,-15 55,-47 81,-47 11,0 18,-4 15,-8 -6,-11 51,-45 63,-37 5,3 12,1 15,-4 7,-10 142,-5 212,9 41,9 61,21 102,62 29,28 52,55 52,59 0,4 6,14 13,21 6,7 21,31 32,53 11,22 23,42 27,45 15,12 32,176 34,335 1,94 4,245 5,338 1,92 5,167 9,167 4,0 4,20 -1,45 -8,44 -4,213 5,223 3,2 1,13 -5,24 -6,10 -10,53 -9,96 1,42 0,111 -1,152 -1,41 -1,98 0,127 1,28 -3,62 -8,76 -5,14 -7,27 -5,30 3,3 7,45 10,93 5,112 10,824 6,884 -2,25 1,67 7,93 7,33 7,55 1,68 -8,13 -6,29 5,55 12,29 13,45 4,82 -6,27 -13,181 -15,357 -2,171 -6,349 -10,398 -4,49 -3,87 2,87 13,0 9,113 -6,139 -8,17 -10,52 -6,122 5,62 3,106 -4,118 -6,13 -6,22 0,26 5,3 7,11 5,18 -9,26 -12,97 -3,97 4,0 5,46 2,103 -3,56 -4,120 -3,142 4,63 1,127 -15,295 -10,103 -15,126 -34,142 -31,28 -55,27 -112,-4 z m 135,-1199 c -9,-14 -45,-11 -45,4 0,8 3,17 6,20 10,9 46,-12 39,-24 z m -368,-945 c -3,-3 -12,-4 -19,-1 -8,3 -5,6 6,6 11,1 17,-2 13,-5 z m 338,-614 c 3,-5 -1,-10 -9,-10 -9,0 -16,5 -16,10 0,6 4,10 9,10 6,0 13,-4 16,-10 z m -10,-661 c 4,-6 13,-8 19,-6 7,3 19,1 27,-5 11,-8 10,-9 -3,-4 -12,3 -18,0 -18,-9 0,-20 -36,-19 -44,1 -12,31 3,50 19,23 z m -396,-1714 c 3,-16 1,-17 -11,-7 -8,6 -17,10 -20,7 -2,-3 -5,2 -5,10 0,23 31,14 36,-10 z"
               id="path4882" />
            <path
               inkscape:connector-curvature="0"
               d="m 23189,18155 c -1,-5 -1,-13 -1,-16 1,-3 -27,-5 -61,-3 -34,1 -116,-2 -182,-7 -159,-13 -353,-17 -387,-8 -15,4 -30,3 -33,-2 -6,-9 -350,-4 -365,6 -5,3 -40,-2 -78,-10 -58,-12 -281,-19 -472,-15 -173,3 -274,10 -282,18 -7,7 -20,7 -39,0 -15,-5 -52,-7 -81,-5 -40,4 -54,2 -63,-10 -10,-13 -17,-14 -46,-4 -34,11 -201,9 -409,-5 -141,-10 -153,-13 -181,-48 -9,-11 -38,-27 -65,-36 -39,-13 -53,-24 -71,-56 -12,-21 -22,-47 -22,-57 -1,-10 -11,-22 -23,-27 -13,-5 -20,-9 -15,-9 8,-1 -16,-43 -42,-74 -21,-25 -30,-94 -14,-106 4,-3 9,-35 11,-70 2,-52 8,-74 33,-113 17,-26 34,-47 37,-46 4,0 22,-5 40,-12 34,-13 41,-27 17,-36 -8,-4 -15,-10 -15,-14 0,-11 144,-29 154,-19 6,6 5,9 -3,9 -7,0 -9,5 -6,10 4,6 15,0 27,-15 15,-20 23,-23 38,-15 11,6 23,9 27,9 4,-1 17,2 27,6 12,5 21,5 23,-1 2,-5 93,-8 220,-6 311,3 364,3 375,-4 6,-4 13,-2 17,3 25,36 325,38 391,3 10,-6 30,-10 44,-10 17,0 27,-7 32,-22 4,-13 16,-35 27,-49 20,-28 32,-105 17,-114 -9,-5 -4,-190 5,-205 3,-5 -2,-15 -10,-23 -15,-16 -21,-78 -8,-90 4,-4 8,-44 10,-88 4,-69 2,-83 -14,-95 -12,-9 -13,-13 -5,-14 7,0 10,-5 7,-11 -4,-5 1,-19 11,-30 15,-17 15,-19 1,-19 -9,0 -21,-9 -27,-20 -8,-15 -6,-24 10,-40 11,-11 16,-20 11,-20 -17,0 -19,-42 -5,-91 10,-33 12,-55 5,-67 -13,-25 -2,-70 23,-88 l 21,-16 -22,5 c -28,6 -34,-17 -27,-108 3,-38 5,-74 5,-80 0,-41 -12,-212 -17,-265 -9,-87 -7,-142 7,-150 16,-10 -14,-20 -43,-14 -20,5 -21,4 -6,-6 33,-21 42,-54 44,-155 2,-55 3,-111 3,-124 1,-14 -5,-28 -12,-33 -8,-5 -8,-8 -1,-8 19,0 23,-26 9,-53 -9,-18 -11,-37 -5,-61 4,-20 4,-38 0,-41 -5,-3 -4,-20 0,-38 5,-17 11,-64 13,-103 2,-39 7,-76 11,-82 3,-6 -2,-19 -13,-29 -24,-23 -24,-20 -21,-316 0,-92 -2,-172 -5,-177 -9,-15 16,-92 38,-117 17,-20 18,-23 4,-23 -22,0 -30,-33 -15,-65 9,-21 9,-28 -1,-34 -8,-5 -13,-36 -14,-89 -1,-44 -5,-84 -9,-88 -12,-11 -10,-19 12,-44 19,-22 19,-70 -1,-78 -4,-2 -5,-10 -2,-18 3,-8 1,-14 -5,-14 -9,0 -7,-12 13,-110 4,-19 12,-40 17,-46 5,-8 2,-18 -9,-30 -14,-14 -18,-37 -20,-124 -1,-58 -6,-117 -11,-131 -5,-13 -7,-55 -5,-94 3,-38 5,-86 5,-105 -2,-101 0,-135 6,-138 4,-1 6,-20 4,-41 -4,-43 19,-81 50,-81 21,0 32,-17 16,-23 -7,-3 -1,-6 15,-6 16,-1 27,-7 27,-15 0,-8 8,-14 18,-14 9,1 35,-3 57,-7 22,-4 81,-9 130,-10 50,-1 103,-7 118,-13 16,-7 35,-12 43,-12 8,0 14,-9 14,-20 0,-31 -3,-35 -28,-32 -15,2 -21,-1 -17,-8 8,-14 63,-9 77,7 5,7 8,20 4,28 -3,8 -1,15 5,15 14,0 39,26 39,39 0,14 16,14 40,1 13,-7 21,-6 30,5 7,8 21,15 31,15 11,0 19,5 19,10 0,6 6,10 14,10 8,0 17,9 21,19 3,11 12,22 20,25 8,3 15,16 15,28 0,13 7,31 15,42 10,13 11,24 5,36 -7,13 -5,21 4,29 10,9 13,39 9,134 -5,157 -4,261 3,313 5,36 9,41 27,36 20,-4 19,-2 -6,22 -22,20 -27,33 -23,51 3,13 2,26 -3,29 -5,4 -5,23 1,48 5,24 7,60 4,81 -5,26 -3,37 6,37 8,0 9,3 3,8 -5,4 -11,32 -12,62 -1,30 -6,68 -12,83 -8,20 -8,33 0,45 8,13 8,39 0,98 -7,43 -12,84 -11,89 0,6 3,35 6,65 14,135 15,242 4,255 -7,8 -13,33 -15,57 -1,24 -4,45 -5,48 -1,3 -3,71 -4,151 -1,99 -5,151 -13,161 -10,12 -9,19 8,37 20,21 20,23 4,48 -12,18 -14,28 -6,36 6,6 11,21 11,33 0,12 6,25 13,28 10,5 10,7 0,12 -8,3 -13,26 -13,60 0,36 4,54 13,54 8,0 7,3 -3,10 -12,7 -15,34 -15,127 -1,65 2,132 5,148 4,17 2,38 -4,49 -8,13 -8,20 1,23 8,3 9,13 2,36 -10,34 -11,166 -1,182 3,5 5,24 3,42 -1,17 3,41 9,53 9,16 9,25 0,35 -7,8 -12,58 -13,124 -1,61 -6,111 -10,111 -5,0 -5,6 1,13 13,16 15,57 6,162 -7,74 -7,115 -3,220 1,22 -2,123 -6,225 -9,220 -9,213 0,270 4,25 9,61 11,80 5,48 26,110 46,138 19,27 64,40 163,47 39,3 90,7 115,9 25,3 50,0 56,-5 7,-6 15,-6 18,-1 3,5 38,7 78,5 79,-5 125,-6 263,-5 132,1 194,-2 189,-9 -6,-10 270,-3 296,8 14,6 34,7 44,4 26,-10 84,18 92,44 4,11 17,34 29,50 12,17 32,51 44,77 13,27 27,51 32,54 6,3 9,24 8,47 -1,23 2,54 6,68 4,16 2,30 -4,33 -16,10 -13,47 6,68 15,17 15,18 -5,18 -22,0 -35,14 -39,43 -2,10 3,17 12,17 8,0 15,7 15,15 0,9 -6,12 -15,9 -9,-4 -18,1 -22,12 -3,11 -11,22 -17,27 -8,5 -6,11 4,18 11,7 12,12 3,15 -7,3 -9,12 -6,20 3,8 2,14 -3,13 -23,-4 -36,2 -31,15 3,8 -6,19 -21,27 -15,8 -29,17 -32,21 -9,11 -123,36 -175,37 -27,1 -85,5 -128,9 -69,7 -114,7 -270,-1 -34,-1 -51,2 -57,13 -5,8 -10,11 -11,5 z m -2549,-322 c 24,-6 23,-6 -9,-14 -32,-7 -81,6 -81,21 0,7 47,3 90,-7 z m 2665,-13 c -3,-5 -14,-10 -23,-10 -15,0 -15,2 -2,10 20,13 33,13 25,0 z m 120,-39 c 65,-30 83,-51 45,-51 -11,0 -23,6 -26,14 -5,12 -12,12 -50,-1 -24,-8 -44,-19 -44,-24 0,-13 -47,-11 -55,2 -4,6 -13,8 -21,5 -8,-3 -14,1 -14,10 0,12 6,15 22,11 13,-4 29,0 40,10 13,12 21,13 31,4 8,-6 17,-8 20,-4 4,3 -2,13 -13,20 -11,8 -18,19 -15,24 8,12 7,13 80,-20 z m 95,-1 c 0,-5 -8,-10 -17,-10 -15,0 -16,2 -3,10 19,12 20,12 20,0 z m -365,-10 c 3,-5 -3,-10 -14,-10 -11,0 -23,5 -26,10 -3,6 3,10 14,10 11,0 23,-4 26,-10 z m -1055,-10 c 0,-5 -5,-10 -11,-10 -5,0 -7,5 -4,10 3,6 8,10 11,10 2,0 4,-4 4,-10 z m 1146,-19 c -6,-9 -46,-22 -46,-15 0,3 10,9 23,14 29,11 29,11 23,1 z m -2456,-13 c 17,-11 18,-14 4,-29 -14,-16 -17,-16 -34,-1 -14,12 -17,19 -8,29 13,16 14,16 38,1 z m 355,-28 c 24,-10 22,-11 -32,-14 -30,-1 -43,2 -43,11 0,15 44,16 75,3 z m 1870,0 c 3,-5 -1,-10 -9,-10 -8,0 -18,5 -21,10 -3,6 1,10 9,10 8,0 18,-4 21,-10 z m -1531,-12 c -4,-7 -3,-8 5,-4 6,4 25,1 41,-8 17,-8 30,-10 30,-5 0,6 4,7 10,4 16,-10 -39,-63 -61,-58 -10,3 -19,12 -19,19 0,10 -7,13 -25,8 -14,-3 -33,-3 -42,0 -15,6 -15,8 -3,16 11,7 12,10 2,10 -7,0 -11,4 -8,9 3,5 15,7 26,4 11,-3 20,0 20,6 0,6 7,11 16,11 9,0 12,-5 8,-12 z m 1641,2 c 3,-5 2,-10 -4,-10 -5,0 -13,5 -16,10 -3,6 -2,10 4,10 5,0 13,-4 16,-10 z m 55,1 c 0,-5 -7,-11 -15,-15 -15,-5 -20,5 -8,17 9,10 23,9 23,-2 z m 114,-5 c 22,8 28,-24 6,-36 -26,-14 -83,-13 -98,2 -18,18 -15,28 8,28 11,0 20,4 20,10 0,6 9,6 25,0 14,-5 31,-7 39,-4 z m -1994,-21 23,-25 -26,0 c -15,0 -36,6 -47,12 -16,10 -24,10 -40,0 -16,-10 -20,-10 -20,1 0,13 41,34 71,36 8,1 26,-10 39,-24 z m 824,19 c 18,-7 12,-24 -8,-24 -7,0 -21,7 -32,15 -19,14 -19,14 3,15 12,0 28,-3 37,-6 z m 576,-28 c 0,-8 -7,-17 -16,-20 -12,-4 -14,-1 -9,14 4,11 2,20 -4,20 -6,0 -11,5 -11,10 0,7 6,7 20,0 11,-6 20,-17 20,-24 z m 50,14 c 0,-5 -2,-10 -4,-10 -3,0 -8,5 -11,10 -3,6 -1,10 4,10 6,0 11,-4 11,-10 z m -1903,-27 c 11,-14 14,-14 28,1 21,20 19,20 49,-7 19,-18 23,-26 14,-35 -9,-9 -9,-12 2,-12 7,0 10,-3 7,-6 -4,-4 -13,-2 -21,5 -12,10 -56,19 -108,20 -19,1 -42,36 -33,50 7,12 47,2 62,-16 z m 960,-23 c -4,-25 -17,-38 -17,-17 0,10 -6,17 -12,17 -9,0 -8,4 2,10 23,15 30,12 27,-10 z m 1976,-12 c 7,-27 1,-39 -18,-31 -23,8 -18,53 6,53 3,0 9,-10 12,-22 z m -2013,-14 c 0,-8 -4,-12 -10,-9 -5,3 -10,10 -10,16 0,5 5,9 10,9 6,0 10,-7 10,-16 z m 322,-52 c -19,-21 -46,-17 -38,4 3,8 1,14 -4,14 -5,0 -7,7 -4,15 5,13 9,13 35,0 27,-15 28,-16 11,-33 z m -117,-2 c 3,-6 -1,-7 -9,-4 -18,7 -21,14 -7,14 6,0 13,-4 16,-10 z m -1045,-56 c 0,-3 -10,-8 -22,-13 -25,-9 -47,-3 -29,8 12,8 51,12 51,5 z m 55,-34 c 6,-1 0,-5 -13,-11 -26,-10 -75,-2 -66,12 3,5 19,7 37,5 18,-3 37,-5 42,-6 z m 2335,-5 c 0,-8 -4,-15 -9,-15 -13,0 -22,16 -14,24 11,11 23,6 23,-9 z m 110,5 c 0,-23 -80,-26 -88,-2 -2,8 10,12 42,12 25,0 46,-4 46,-10 z m -975,-268 c -3,-3 -11,0 -18,7 -9,10 -8,11 6,5 10,-3 15,-9 12,-12 z m 22,-24 c -3,-8 -6,-5 -6,6 -1,11 2,17 5,13 3,-3 4,-12 1,-19 z m -474,-62 c 6,-15 -1,-26 -15,-26 -4,0 -8,9 -8,20 0,23 15,27 23,6 z m 77,-26 c -8,-5 -24,-9 -35,-9 -16,1 -16,2 5,9 35,11 48,11 30,0 z m 372,-260 c -23,-22 -47,-26 -57,-10 -3,6 -1,10 5,10 6,0 8,5 5,10 -4,6 9,10 31,10 l 38,0 -22,-20 z m -376,-113 c 6,-13 8,-29 6,-35 -7,-21 -32,7 -32,34 0,30 12,31 26,1 z m 10,-103 c -3,-8 -10,-14 -16,-14 -17,0 -23,29 -9,46 11,14 13,14 22,-1 5,-9 6,-23 3,-31 z m -116,-2137 c 0,-4 4,-6 9,-2 5,3 12,1 16,-5 7,-11 -24,-14 -49,-4 -22,9 -20,20 4,20 11,0 20,-4 20,-9 z m 484,-241 c -3,-9 -10,-13 -15,-10 -5,3 -3,11 4,19 15,16 19,13 11,-9 z m -337,-727 c 2,-17 -1,-18 -13,-8 -13,11 -10,20 11,29 1,0 1,-9 2,-21 z m -327,-385 c 0,-2 -7,-4 -15,-4 -8,0 -15,4 -15,10 0,5 7,7 15,4 8,-4 15,-8 15,-10 z"
               id="path4884" />
            <path
               inkscape:connector-curvature="0"
               d="m 7715,18118 c -34,-10 -184,-15 -350,-10 -60,2 -128,2 -150,-1 -22,-3 -91,-1 -154,4 -151,13 -152,12 -151,-138 0,-60 -1,-142 -4,-184 -2,-42 0,-96 4,-120 5,-25 4,-49 -1,-55 -5,-6 -4,-15 3,-22 8,-8 7,-13 -5,-18 -12,-4 -14,-11 -8,-23 6,-9 7,-35 4,-58 -6,-48 10,-103 37,-128 18,-16 81,-34 141,-39 33,-3 48,-13 59,-40 l 9,-21 6,22 c 9,30 35,32 305,29 l 235,-3 63,-33 c 34,-18 62,-36 62,-41 0,-4 24,-15 53,-24 32,-10 71,-33 97,-56 23,-21 57,-48 74,-59 18,-10 41,-28 51,-40 10,-11 25,-20 34,-20 9,0 23,-9 31,-20 8,-11 20,-20 27,-20 7,0 13,-7 13,-15 0,-8 20,-36 44,-62 24,-25 47,-60 50,-77 4,-16 12,-37 20,-45 13,-16 31,-73 45,-146 5,-22 14,-53 20,-70 7,-16 12,-59 12,-95 0,-36 1,-100 2,-143 1,-44 0,-80 -3,-82 -3,-2 -5,-27 -5,-56 0,-49 -3,-56 -43,-97 -31,-31 -41,-48 -37,-63 4,-10 2,-19 -4,-19 -5,0 -11,-10 -13,-22 -2,-12 -16,-28 -35,-37 -17,-9 -34,-26 -38,-38 -3,-13 -12,-23 -20,-23 -9,0 -20,-12 -25,-26 -6,-14 -14,-23 -19,-20 -5,4 -21,-9 -37,-26 -15,-18 -30,-32 -33,-30 -3,2 -9,-7 -12,-20 -3,-13 -11,-22 -18,-20 -7,1 -10,-2 -7,-7 14,-22 -73,-51 -151,-51 -27,0 -74,-4 -104,-10 -30,-5 -116,-11 -191,-14 -76,-2 -143,-8 -150,-12 -7,-5 -69,-9 -138,-10 -92,-1 -133,3 -154,13 -16,8 -40,12 -55,9 -14,-3 -41,-8 -58,-12 -18,-3 -33,-10 -33,-14 0,-5 -9,-6 -20,-3 -14,4 -30,-5 -52,-26 -17,-17 -35,-31 -40,-31 -4,0 -8,-6 -8,-13 0,-7 -9,-30 -19,-51 -19,-36 -18,-64 1,-77 15,-10 16,-108 1,-120 -10,-9 -10,-15 1,-32 7,-12 11,-40 10,-62 -1,-22 2,-44 6,-50 19,-25 30,-150 15,-174 -6,-11 29,-96 44,-105 16,-10 118,-27 181,-30 77,-4 128,-15 176,-37 41,-19 124,-91 124,-107 0,-5 11,-19 25,-32 14,-13 37,-43 51,-67 13,-24 28,-43 32,-43 4,0 16,-15 27,-32 10,-18 33,-51 52,-72 18,-22 33,-46 33,-53 0,-7 9,-21 20,-30 11,-10 20,-25 20,-35 0,-9 4,-19 9,-22 4,-3 11,-20 15,-37 3,-18 31,-58 66,-96 33,-36 60,-74 60,-84 0,-10 10,-26 23,-36 35,-28 89,-118 101,-168 4,-16 18,-44 32,-62 13,-17 24,-38 24,-46 0,-8 6,-17 13,-20 7,-3 19,-24 26,-48 7,-24 24,-59 37,-78 13,-20 24,-41 24,-48 0,-6 8,-18 19,-25 10,-7 19,-17 21,-23 1,-5 15,-39 31,-74 16,-35 27,-67 24,-71 -3,-5 3,-15 13,-22 10,-7 28,-33 40,-58 12,-25 39,-64 60,-85 28,-29 42,-55 50,-93 10,-43 21,-61 68,-107 56,-54 104,-85 131,-85 7,0 13,-5 13,-11 0,-6 7,-9 15,-5 9,3 23,-2 33,-12 12,-12 33,-17 67,-17 28,0 77,-4 110,-8 38,-5 55,-4 46,2 -15,10 -8,41 9,41 9,0 14,-14 11,-33 -1,-4 18,-5 42,-3 48,5 161,66 177,96 5,10 16,24 22,32 14,14 36,58 63,123 9,22 22,50 28,63 6,13 10,55 9,94 -1,61 -5,75 -26,97 -14,14 -30,47 -36,73 -7,26 -18,53 -26,59 -8,6 -19,29 -24,50 -6,21 -26,59 -46,85 -19,25 -45,65 -57,87 -11,23 -26,47 -33,52 -7,6 -29,43 -49,83 -20,39 -41,75 -47,78 -5,4 -23,35 -38,69 -16,35 -49,85 -74,112 -25,26 -44,54 -41,61 2,6 -1,12 -7,12 -6,0 -8,3 -5,6 7,8 -18,46 -84,126 -26,31 -51,67 -55,80 -4,12 -17,39 -29,58 -12,19 -44,72 -70,118 -27,46 -61,92 -77,103 -15,11 -28,27 -28,34 0,8 -7,18 -16,23 -15,8 -69,98 -110,182 -9,19 -17,52 -18,74 0,32 5,43 34,68 19,16 46,31 60,34 14,3 34,9 45,14 11,4 52,16 90,25 57,14 78,26 115,61 25,24 51,44 57,44 7,0 17,9 23,20 6,10 39,40 75,65 36,26 65,51 65,55 0,5 8,11 19,15 10,3 26,23 36,45 10,21 23,41 30,44 23,9 145,204 145,232 0,7 10,25 23,41 17,20 24,43 26,83 4,92 19,141 56,182 36,39 44,75 23,96 -10,10 -10,15 -1,20 17,11 46,138 38,173 -4,17 -7,94 -7,172 1,104 -3,148 -14,169 -9,18 -12,34 -6,46 18,36 7,145 -21,204 -15,31 -27,71 -27,88 0,30 -31,102 -54,125 -6,7 -11,32 -9,56 1,24 -2,46 -6,49 -5,3 -21,30 -36,60 -15,30 -36,62 -45,70 -9,8 -28,31 -41,50 -131,191 -194,256 -300,311 -22,11 -60,34 -83,52 -39,28 -132,90 -190,124 -12,7 -50,27 -86,44 -36,17 -81,40 -101,50 -24,12 -61,19 -105,20 -70,1 -91,5 -219,33 -79,18 -79,18 -120,4 z m -247,-352 c 11,-4 19,-12 17,-19 -2,-7 -6,-25 -10,-41 -6,-26 -9,-28 -43,-23 -42,5 -133,44 -144,61 -12,17 -9,24 10,28 28,5 147,1 170,-6 z m 1337,-296 c -3,-5 -13,-10 -21,-10 -8,0 -14,5 -14,10 0,6 9,10 21,10 11,0 17,-4 14,-10 z m -135,-1250 c 0,-15 5,-31 12,-38 17,-17 -3,-15 -28,2 -16,12 -21,27 -22,73 l -2,58 20,-35 c 10,-19 19,-46 20,-60 z M 7530,15080 c 12,-7 12,-12 2,-22 -6,-6 -12,-8 -12,-2 0,5 -4,3 -9,-4 -6,-10 -10,-7 -13,12 -5,27 6,33 32,16 z m 31,-53 c -10,-9 -11,-8 -5,6 3,10 9,15 12,12 3,-3 0,-11 -7,-18 z m 36,-37 c 3,-10 2,-11 -4,-4 -4,6 -15,14 -23,17 -11,5 -9,6 4,4 11,-1 21,-9 23,-17 z"
               id="path4886" />
            <path
               inkscape:connector-curvature="0"
               d="m 12318,17949 c -6,-4 -27,-7 -47,-7 -20,-1 -58,-12 -86,-25 -55,-27 -148,-104 -140,-117 3,-4 -13,-26 -35,-48 -22,-22 -40,-48 -40,-58 0,-11 -7,-28 -15,-38 -8,-11 -15,-26 -15,-33 0,-12 -17,-36 -47,-68 -7,-8 -13,-18 -13,-23 0,-5 -7,-23 -15,-38 -8,-16 -15,-43 -15,-59 0,-17 -4,-35 -9,-40 -5,-6 -14,-28 -21,-50 -7,-22 -20,-53 -29,-70 -10,-16 -28,-68 -41,-115 -14,-47 -27,-87 -30,-90 -13,-11 -60,-133 -60,-154 0,-12 -4,-26 -8,-31 -5,-6 -22,-41 -37,-80 -16,-38 -32,-74 -35,-80 -4,-5 -13,-31 -21,-57 -7,-27 -16,-48 -19,-48 -3,0 -6,-10 -7,-21 -2,-28 -29,-83 -47,-98 -10,-8 -13,-23 -10,-40 4,-20 1,-30 -10,-34 -10,-4 -16,-18 -16,-40 0,-19 -11,-54 -24,-78 -13,-24 -30,-71 -37,-104 -7,-33 -20,-69 -31,-81 -10,-11 -18,-34 -18,-50 0,-19 -11,-41 -29,-62 -16,-17 -26,-34 -21,-37 11,-7 -33,-124 -58,-152 -11,-13 -17,-23 -12,-23 18,0 18,-30 -1,-54 -11,-14 -18,-30 -15,-35 6,-9 -1,-31 -34,-106 -10,-22 -21,-55 -24,-73 -3,-19 -15,-45 -26,-59 -12,-15 -18,-34 -15,-44 4,-12 -1,-23 -13,-30 -12,-7 -17,-19 -15,-30 6,-20 -36,-150 -50,-160 -5,-3 -11,-25 -14,-48 -3,-22 -9,-41 -12,-41 -4,0 -15,-18 -25,-40 -10,-22 -22,-40 -26,-40 -5,0 -7,-14 -3,-30 4,-20 1,-36 -10,-48 -13,-15 -54,-139 -60,-182 -1,-8 -8,-19 -14,-23 -7,-4 -13,-17 -13,-28 0,-11 -6,-22 -14,-25 -8,-3 -13,-11 -10,-18 3,-7 -7,-39 -21,-72 -14,-32 -24,-63 -21,-69 2,-7 -4,-18 -15,-26 -10,-7 -19,-23 -19,-34 0,-11 -14,-44 -30,-74 -17,-30 -30,-66 -30,-79 0,-14 -5,-42 -11,-61 -24,-77 -28,-83 -49,-76 -18,6 -19,4 -10,-21 8,-19 8,-30 0,-38 -5,-5 -10,-23 -10,-38 0,-15 -4,-28 -9,-28 -9,0 -24,-38 -22,-57 1,-6 -3,-14 -9,-18 -5,-3 -10,-15 -10,-25 0,-10 -8,-24 -17,-30 -13,-8 -14,-13 -5,-16 14,-7 16,-34 2,-34 -5,0 -10,-8 -10,-18 0,-10 -9,-24 -20,-32 -11,-8 -20,-24 -20,-36 0,-12 -7,-27 -16,-35 -10,-8 -14,-22 -10,-40 4,-21 0,-33 -17,-46 -12,-10 -23,-30 -24,-46 -1,-15 -9,-34 -17,-43 -9,-8 -19,-27 -22,-42 -3,-15 -9,-36 -12,-47 -3,-11 -6,-23 -7,-27 0,-3 -3,-10 -7,-14 -5,-4 -8,-21 -8,-37 0,-16 -9,-42 -21,-58 -11,-16 -18,-37 -15,-46 4,-8 -1,-44 -9,-78 -21,-80 -16,-129 18,-182 15,-24 27,-47 27,-53 0,-16 87,-100 104,-100 8,0 23,-10 33,-23 30,-37 65,-54 149,-71 97,-20 117,-18 238,24 79,27 96,39 131,94 16,25 33,46 37,46 4,0 8,8 8,18 0,10 9,36 20,57 11,22 18,45 16,52 -3,6 2,17 10,24 8,6 13,17 11,23 -5,13 19,61 46,92 12,14 16,31 13,51 -4,19 2,45 14,71 11,23 20,50 20,61 0,17 18,56 48,106 4,6 7,17 9,25 5,39 38,156 45,165 4,5 8,16 8,25 0,8 8,31 19,50 10,19 22,50 25,67 4,18 12,35 17,38 5,4 9,14 9,24 0,9 16,36 35,58 19,23 35,46 35,52 0,6 10,16 23,22 12,7 27,19 33,27 6,9 18,13 27,9 8,-3 21,1 27,9 7,8 23,14 36,14 13,0 33,9 44,20 13,13 33,20 60,20 22,0 56,6 75,14 32,14 34,13 50,-10 15,-23 22,-25 88,-24 40,1 97,-2 128,-7 85,-14 116,5 139,82 7,22 19,48 27,57 12,14 13,21 4,32 -7,8 -12,36 -11,63 0,26 1,56 0,66 0,9 0,25 1,35 4,71 -2,116 -16,132 -13,14 -14,23 -6,37 11,22 6,116 -9,142 -13,26 -8,61 10,61 9,1 1,13 -23,34 -40,36 -115,62 -131,46 -14,-14 -143,-12 -169,2 -38,20 -75,73 -80,114 -7,51 -19,88 -35,107 -12,14 -13,17 -1,17 11,0 13,14 11,64 -3,53 0,70 17,93 11,15 23,44 25,63 9,68 27,129 42,141 8,6 14,17 14,24 0,7 7,18 15,25 17,14 20,56 4,65 -6,5 -4,12 8,21 10,7 14,14 9,14 -6,0 -1,6 10,14 15,12 17,17 7,27 -17,17 -16,29 0,29 13,0 26,25 52,99 8,24 23,50 33,57 10,8 12,13 4,14 -9,0 -9,8 3,36 8,20 15,44 15,54 0,10 13,29 29,43 19,16 26,28 20,34 -7,7 -1,21 16,41 28,34 39,68 24,77 -15,10 -10,25 6,19 9,-4 15,0 15,10 0,9 4,16 10,16 5,0 7,7 4,15 -4,8 -2,21 4,28 5,6 12,24 16,40 3,15 11,27 16,27 6,0 10,6 10,13 0,25 31,77 46,77 17,0 17,5 2,30 -10,16 -8,29 16,77 16,32 31,65 32,73 2,8 9,43 16,78 8,41 17,62 26,62 10,0 12,7 8,25 -4,16 -1,34 9,48 8,12 15,29 15,38 0,9 13,41 28,70 29,56 57,133 66,184 3,16 12,35 21,41 8,6 15,18 15,26 0,9 7,29 15,44 8,16 15,37 15,47 0,9 11,35 25,57 14,22 25,50 25,64 0,13 7,29 16,37 10,8 13,21 9,36 -4,17 1,30 18,47 27,27 57,95 57,129 0,13 9,26 23,32 24,11 35,51 18,68 -13,13 -15,30 -2,22 5,-3 16,9 25,26 13,26 13,36 2,62 -19,46 -48,62 -146,83 -44,9 -248,11 -262,3 z m -138,-659 c 8,-5 12,-11 9,-14 -3,-3 -14,1 -25,9 -21,16 -8,20 16,5 z m -620,-1000 c 0,-5 -4,-10 -9,-10 -6,0 -13,5 -16,10 -3,6 1,10 9,10 9,0 16,-4 16,-10 z m -780,-1970 c 0,-5 -7,-7 -15,-4 -8,4 -15,8 -15,10 0,2 7,4 15,4 8,0 15,-4 15,-10 z m 813,-70 c 7,0 8,-3 1,-10 -12,-12 -56,-1 -48,12 3,5 13,7 21,4 8,-3 20,-6 26,-6 z m 103,-20 c 0,-11 -1,-20 -3,-20 -1,0 -7,9 -13,20 -8,15 -8,20 3,20 7,0 13,-9 13,-20 z m 264,-20 c 0,-6 -16,-10 -35,-10 -19,0 -35,4 -35,8 0,5 16,9 35,10 19,1 35,-3 35,-8 z m -363,-26 c -3,-3 -12,-4 -19,-1 -8,3 -5,6 6,6 11,1 17,-2 13,-5 z m -630,-50 c -3,-3 -12,-4 -19,-1 -8,3 -5,6 6,6 11,1 17,-2 13,-5 z m 59,-36 c -9,-12 -16,-17 -16,-10 0,14 23,42 29,37 1,-2 -4,-14 -13,-27 z m -236,-674 c 0,-9 -5,-14 -12,-12 -18,6 -21,28 -4,28 9,0 16,-7 16,-16 z m -20,-80 c 0,-3 -5,-15 -12,-27 -11,-21 -11,-21 -18,-2 -4,11 -2,23 4,27 13,9 26,10 26,2 z m -309,-357 c -1,-12 -15,-9 -19,4 -3,6 1,10 8,8 6,-3 11,-8 11,-12 z m 97,-80 c 12,1 22,-3 22,-9 0,-13 -79,-3 -93,12 -10,10 -6,11 18,5 17,-5 40,-8 53,-8 z m 319,-39 c -3,-8 -6,-5 -6,6 -1,11 2,17 5,13 3,-3 4,-12 1,-19 z"
               id="path4888" />
            <path
               inkscape:connector-curvature="0"
               d="m 14670,17191 c 0,-5 7,-11 15,-15 8,-3 15,-1 15,3 0,5 -7,11 -15,15 -8,3 -15,1 -15,-3 z"
               id="path4890" />
            <path
               inkscape:connector-curvature="0"
               d="m 13013,16968 c -11,-13 -26,-39 -33,-58 -13,-32 -25,-50 -72,-101 -10,-10 -18,-22 -18,-26 0,-5 -9,-19 -20,-33 -12,-16 -15,-28 -9,-36 12,-15 -10,-94 -28,-101 -9,-4 -9,-9 -1,-23 17,-27 -17,-107 -64,-151 -36,-35 -40,-44 -42,-115 -1,-12 -9,-31 -19,-42 -23,-25 -57,-92 -57,-112 0,-8 9,-30 20,-48 11,-18 20,-39 20,-48 0,-24 44,-148 58,-162 7,-8 10,-18 7,-23 -4,-5 -3,-9 2,-9 8,0 37,-57 39,-75 0,-5 8,-27 17,-49 9,-21 17,-44 17,-52 0,-7 5,-16 10,-19 6,-3 10,-17 10,-30 0,-13 4,-26 9,-29 12,-8 91,-173 91,-191 0,-8 4,-15 8,-15 10,0 41,-52 45,-76 2,-11 7,-26 10,-34 19,-50 25,-82 20,-96 -3,-8 3,-25 14,-37 15,-16 21,-36 21,-71 0,-27 6,-69 13,-93 14,-52 1,-93 -30,-93 -35,0 -51,-12 -51,-39 0,-25 -33,-51 -65,-51 -7,0 -22,-13 -35,-30 -17,-22 -30,-29 -54,-28 -79,3 -144,-68 -124,-137 5,-17 11,-84 13,-150 1,-66 6,-141 10,-167 6,-35 4,-52 -6,-64 -12,-15 -11,-19 9,-32 12,-8 22,-25 22,-38 0,-19 8,-25 40,-34 22,-6 45,-8 50,-5 5,3 30,1 57,-5 26,-6 107,-13 178,-15 72,-2 146,-7 165,-10 19,-3 44,-6 55,-6 11,0 32,-12 47,-26 16,-16 33,-23 43,-19 18,7 125,-93 125,-117 0,-9 7,-23 16,-31 9,-9 17,-28 19,-41 1,-14 15,-43 30,-64 15,-22 25,-46 22,-53 -2,-7 1,-20 8,-28 6,-8 20,-42 30,-75 10,-33 26,-75 37,-93 11,-18 22,-59 25,-92 3,-33 12,-65 19,-71 8,-6 14,-18 14,-26 0,-7 9,-32 21,-55 11,-22 19,-49 16,-59 -3,-10 3,-25 12,-33 10,-9 27,-37 40,-63 12,-27 31,-65 41,-85 11,-20 20,-48 20,-62 0,-14 10,-36 23,-50 12,-14 33,-39 47,-55 14,-17 35,-33 47,-36 12,-3 30,-14 40,-24 12,-13 41,-22 90,-28 61,-8 75,-7 93,7 22,17 22,17 -7,13 -25,-4 -31,-1 -36,17 -3,12 -10,19 -16,15 -6,-3 -9,-11 -6,-16 4,-5 -1,-9 -9,-9 -8,0 -17,4 -20,9 -7,10 -25,9 -43,-2 -7,-5 -13,-5 -13,0 1,20 19,34 51,36 19,1 39,9 46,17 10,13 12,13 18,-3 5,-12 14,-16 26,-12 11,4 19,2 19,-4 0,-5 10,-8 22,-6 30,6 58,-3 58,-19 0,-8 10,-11 31,-8 26,4 30,8 26,28 -2,13 0,21 4,18 13,-8 49,15 49,31 0,7 18,31 41,53 25,25 35,42 27,44 -8,3 -2,14 17,34 16,16 38,45 48,64 21,39 31,117 16,126 -5,3 -9,31 -9,62 0,40 -6,67 -21,91 -11,18 -18,41 -16,50 2,9 -7,30 -19,47 -12,17 -26,48 -30,70 -4,21 -15,56 -25,76 -11,21 -19,45 -19,55 0,10 -9,33 -20,51 -11,18 -20,40 -20,50 0,9 -16,46 -35,82 -19,35 -35,70 -35,78 0,8 -16,47 -35,88 -19,40 -35,77 -35,81 0,3 -8,16 -19,27 -20,23 -41,78 -41,108 0,11 -10,40 -22,66 -12,26 -21,59 -19,73 1,14 -5,31 -13,38 -9,7 -18,29 -21,50 -6,34 -50,155 -65,176 -4,6 -11,31 -14,58 -5,30 -16,56 -32,72 -13,13 -24,33 -24,43 0,11 -7,33 -15,48 -8,16 -15,42 -15,58 0,16 -15,57 -34,90 -35,63 -100,236 -89,236 3,0 0,8 -8,18 -8,9 -25,44 -37,77 -13,33 -34,83 -47,110 -14,28 -31,68 -39,90 -8,22 -25,69 -39,105 -14,36 -31,81 -38,100 -7,19 -19,51 -27,70 -26,59 -54,133 -66,175 -19,61 -32,90 -49,103 -10,8 -14,26 -12,50 3,27 -2,45 -20,68 -13,17 -34,60 -46,95 -12,35 -28,73 -35,84 -6,11 -15,36 -19,55 -4,19 -21,54 -36,77 -16,23 -29,49 -29,57 0,9 -5,16 -11,16 -5,0 -7,5 -3,11 4,7 -5,35 -18,63 -59,118 -88,184 -88,197 0,8 -18,31 -40,52 -48,45 -95,50 -127,15 z m -43,-878 c 0,-5 -2,-10 -4,-10 -3,0 -8,5 -11,10 -3,6 -1,10 4,10 6,0 11,-4 11,-10 z m 30,-94 c -13,-13 -35,7 -25,24 5,8 11,8 21,-1 10,-8 12,-15 4,-23 z m 64,-95 c 11,-4 15,-10 10,-13 -5,-4 -18,0 -29,8 -20,15 -12,17 19,5 z m 661,-561 c 3,-5 -1,-10 -9,-10 -9,0 -16,5 -16,10 0,6 4,10 9,10 6,0 13,-4 16,-10 z m -438,-796 c -3,-3 -12,-4 -19,-1 -8,3 -5,6 6,6 11,1 17,-2 13,-5 z m 53,-154 c 8,-5 11,-10 5,-10 -5,0 -17,5 -25,10 -8,5 -10,10 -5,10 6,0 17,-5 25,-10 z m 267,-36 c -3,-3 -12,-4 -19,-1 -8,3 -5,6 6,6 11,1 17,-2 13,-5 z m -547,-154 c 0,-5 -4,-10 -9,-10 -6,0 -13,5 -16,10 -3,6 1,10 9,10 9,0 16,-4 16,-10 z m 1140,-25 c 14,-17 0,-21 -17,-4 -8,8 -13,8 -17,0 -4,-6 -12,-11 -17,-11 -14,0 13,29 27,30 6,0 17,-7 24,-15 z m -840,-30 c 0,-8 -2,-15 -4,-15 -2,0 -6,7 -10,15 -3,8 -1,15 4,15 6,0 10,-7 10,-15 z m 818,-171 c -3,-18 -5,-17 -26,4 -12,12 -22,32 -22,44 0,22 0,22 26,-3 15,-15 24,-35 22,-45 z m 170,-315 c -3,-8 -7,-3 -11,10 -4,17 -3,21 5,13 5,-5 8,-16 6,-23 z m -18,-49 c 0,-5 -4,-10 -10,-10 -5,0 -10,5 -10,10 0,6 5,10 10,10 6,0 10,-4 10,-10 z m 70,-30 c 0,-5 -4,-10 -10,-10 -5,0 -10,5 -10,10 0,6 5,10 10,10 6,0 10,-4 10,-10 z m -32,-71 c 2,-23 2,-23 -13,-5 -18,24 -20,39 -2,34 6,-3 13,-15 15,-29 z m 97,-19 c -3,-5 -15,-10 -26,-10 -11,0 -17,5 -14,10 3,6 15,10 26,10 11,0 17,-4 14,-10 z m -414,-170 c 26,-14 24,-26 -3,-25 -26,0 -48,12 -48,26 0,12 27,12 51,-1 z m 398,-75 c 0,-20 0,-20 -9,0 -5,11 -9,27 -9,35 -1,13 0,13 9,0 5,-8 9,-24 9,-35 z m -243,-150 c 8,-31 2,-57 -13,-63 -8,-2 -13,6 -13,20 0,13 -5,29 -11,35 -16,16 -4,44 16,37 8,-4 18,-17 21,-29 z m 160,-190 c -1,-19 -3,-22 -11,-12 -5,8 -16,12 -23,10 -7,-3 -10,1 -6,11 3,9 14,16 24,16 13,0 17,-7 16,-25 z m -106,6 c 0,-5 -9,-7 -20,-4 -11,3 -20,7 -20,9 0,2 9,4 20,4 11,0 20,-4 20,-9 z m -200,-11 c 0,-13 -11,-13 -30,0 -12,8 -11,10 8,10 12,0 22,-4 22,-10 z"
               id="path4892" />
            <path
               inkscape:connector-curvature="0"
               d="m 12095,15720 c 3,-5 10,-10 16,-10 5,0 9,5 9,10 0,6 -7,10 -16,10 -8,0 -12,-4 -9,-10 z"
               id="path4894" />
            <path
               inkscape:connector-curvature="0"
               d="m 2187,15013 c -11,-10 -8,-23 4,-23 6,0 22,-9 36,-20 15,-11 29,-18 32,-14 3,3 -2,11 -12,18 -9,7 -17,18 -17,24 0,5 -7,13 -16,16 -19,7 -19,7 -27,-1 z"
               id="path4896" />
            <path
               inkscape:connector-curvature="0"
               d="m 15378,14923 c 7,-3 16,-2 19,1 4,3 -2,6 -13,5 -11,0 -14,-3 -6,-6 z"
               id="path4898" />
            <path
               inkscape:connector-curvature="0"
               d="m 8964,13965 c 11,-8 22,-12 25,-9 6,6 -19,24 -34,24 -5,-1 -1,-7 9,-15 z"
               id="path4900" />
            <path
               inkscape:connector-curvature="0"
               d="m 605,13960 c -4,-6 7,-10 25,-10 18,0 29,4 25,10 -3,6 -15,10 -25,10 -10,0 -22,-4 -25,-10 z"
               id="path4902" />
            <path
               inkscape:connector-curvature="0"
               d="m 9015,13950 c 3,-5 8,-10 11,-10 2,0 4,5 4,10 0,6 -5,10 -11,10 -5,0 -7,-4 -4,-10 z"
               id="path4904" />
            <path
               inkscape:connector-curvature="0"
               d="m 698,13833 c 7,-3 16,-2 19,1 4,3 -2,6 -13,5 -11,0 -14,-3 -6,-6 z"
               id="path4906" />
            <path
               inkscape:connector-curvature="0"
               d="m 17520,13395 c 0,-8 5,-15 10,-15 6,0 10,7 10,15 0,8 -4,15 -10,15 -5,0 -10,-7 -10,-15 z"
               id="path4908" />
            <path
               inkscape:connector-curvature="0"
               d="m 16890,13149 c 0,-5 11,-9 25,-9 33,0 33,15 0,16 -14,1 -25,-2 -25,-7 z"
               id="path4910" />
            <path
               inkscape:connector-curvature="0"
               d="m 16823,13143 c 9,-2 23,-2 30,0 6,3 -1,5 -18,5 -16,0 -22,-2 -12,-5 z"
               id="path4912" />
            <path
               inkscape:connector-curvature="0"
               d="m 16670,13121 c 0,-17 30,-20 62,-6 l 33,14 -47,1 c -27,0 -48,-4 -48,-9 z"
               id="path4914" />
            <path
               inkscape:connector-curvature="0"
               d="m 9344,10920 c -5,-5 -68,-14 -139,-20 -162,-13 -189,-16 -214,-30 -11,-5 -24,-9 -28,-8 -4,1 -22,-11 -38,-27 -17,-17 -42,-40 -55,-52 -43,-37 -73,-81 -76,-108 -2,-15 -7,-32 -12,-38 -6,-7 -13,-37 -16,-67 -3,-30 -12,-75 -19,-100 -8,-25 -12,-74 -10,-110 5,-107 3,-150 -9,-178 -6,-15 -11,-30 -10,-34 3,-11 13,-247 13,-283 0,-16 1,-70 1,-120 2,-101 0,-285 -2,-300 -1,-5 3,-27 8,-47 5,-20 7,-40 4,-43 -9,-9 -10,-48 -1,-72 5,-13 4,-25 -2,-28 -5,-4 -7,-11 -4,-16 13,-21 13,-175 -1,-207 -10,-24 -11,-40 -3,-60 6,-15 8,-45 4,-68 -3,-22 -8,-60 -11,-85 -3,-24 -7,-51 -9,-59 -3,-9 1,-40 9,-70 8,-31 10,-57 5,-60 -11,-7 -15,-103 -5,-119 4,-6 3,-17 -3,-24 -6,-9 -7,-27 0,-56 5,-24 7,-51 5,-60 -16,-54 -20,-302 -11,-636 8,-284 8,-306 6,-335 -1,-14 1,-74 5,-135 3,-60 6,-119 5,-130 0,-11 -1,-83 -1,-159 -1,-77 -5,-160 -11,-185 -6,-25 -12,-53 -14,-61 -2,-9 3,-32 10,-52 6,-20 9,-41 6,-46 -5,-9 -4,-84 3,-269 0,-17 4,-29 9,-26 10,6 9,-21 -4,-72 -10,-38 -8,-47 9,-72 20,-27 35,-121 33,-191 -3,-55 19,-114 55,-150 19,-19 34,-37 34,-42 0,-4 16,-18 35,-31 19,-13 35,-27 35,-30 0,-4 12,-9 28,-12 15,-3 36,-19 47,-36 19,-29 23,-31 86,-31 37,0 83,-7 102,-15 48,-20 54,-19 83,10 25,25 29,25 140,22 78,-3 119,-8 131,-18 43,-34 60,-39 77,-20 9,10 33,18 58,20 23,1 44,4 47,6 2,3 10,0 16,-5 7,-6 48,-12 91,-14 44,-2 92,-6 108,-10 16,-4 34,-2 41,4 8,7 28,8 52,4 44,-8 205,-10 219,-2 5,3 70,3 144,0 235,-9 469,-5 644,13 21,2 50,-1 65,-7 15,-6 91,-9 181,-8 85,1 169,2 185,1 149,-3 248,0 292,9 28,6 62,11 75,12 13,0 58,9 100,20 l 77,20 6,41 c 12,70 14,77 27,112 6,19 16,35 20,35 4,0 8,9 8,21 0,11 8,33 18,47 10,15 22,36 26,46 12,34 8,232 -6,264 -20,45 -105,114 -137,110 -14,-1 -32,1 -39,6 -8,5 -42,10 -75,12 -79,5 -107,9 -130,19 -10,4 -35,3 -55,-3 -19,-6 -40,-9 -45,-5 -5,3 -84,7 -176,9 -91,2 -191,6 -221,9 -68,8 -316,7 -388,-1 -29,-3 -60,-3 -70,2 -9,4 -21,6 -27,5 -5,-2 -68,-2 -140,-2 -71,1 -137,2 -145,2 -62,0 -157,0 -165,-1 -5,-1 -125,-3 -265,-5 -140,-1 -280,-8 -310,-13 -72,-13 -131,-7 -171,17 -18,11 -36,18 -41,15 -4,-3 -13,0 -20,6 -7,6 -24,19 -36,30 -22,18 -36,56 -47,125 -11,79 -12,104 -5,151 10,63 24,343 21,404 -3,43 -3,171 0,235 1,17 0,83 -1,149 -2,86 1,121 10,126 7,5 11,19 8,34 -3,14 -2,26 2,26 14,0 40,115 35,155 -5,51 13,92 43,100 29,7 35,3 37,-28 1,-12 4,-21 6,-20 2,1 13,5 24,8 11,4 37,14 58,23 29,12 73,16 180,16 78,0 158,-4 177,-8 19,-4 76,-9 125,-11 50,-2 110,-8 135,-13 25,-6 88,-8 140,-5 52,3 109,6 125,5 152,-2 218,0 238,7 13,5 30,5 38,1 24,-13 119,-22 132,-13 7,5 59,10 117,12 172,4 279,9 288,15 4,2 44,6 87,7 80,2 103,9 137,42 10,9 24,17 31,17 30,0 51,78 52,189 0,63 5,115 13,128 7,12 11,48 9,83 -2,34 1,64 6,67 4,3 1,13 -8,23 -9,10 -14,23 -11,29 3,5 -1,16 -9,24 -8,9 -15,18 -15,21 0,16 -97,96 -112,92 -9,-2 -26,3 -37,11 -15,10 -60,16 -153,19 -72,2 -133,6 -135,8 -5,5 -56,-1 -130,-15 -35,-6 -69,-9 -77,-6 -8,3 -20,-1 -27,-9 -6,-8 -14,-12 -16,-10 -3,2 -19,-2 -36,-9 -28,-12 -34,-11 -49,2 -13,11 -47,16 -130,19 -62,3 -167,9 -233,14 -66,5 -185,11 -265,15 -80,3 -172,7 -205,10 -33,2 -109,6 -170,10 -173,9 -319,46 -355,90 -19,23 -22,57 -21,193 1,35 6,72 11,83 8,13 7,25 -1,40 -13,26 -20,149 -22,394 -2,175 8,264 33,289 14,14 13,113 -2,139 -22,40 2,107 39,107 7,0 13,5 13,10 0,6 9,19 20,30 20,20 20,20 40,0 11,-11 25,-20 31,-20 6,0 9,-6 6,-14 -9,-22 25,-25 100,-11 45,9 84,10 114,5 53,-10 117,-12 307,-11 78,1 147,-1 152,-4 5,-3 11,-1 14,3 3,5 18,7 33,5 26,-4 108,-4 313,-1 41,1 140,-2 218,-6 104,-5 148,-4 158,5 11,9 14,9 14,-1 0,-16 377,-5 550,17 69,8 135,15 148,15 12,0 25,4 28,9 3,5 42,9 87,9 81,1 82,1 118,38 32,32 36,42 32,74 -3,25 -11,38 -24,41 -10,3 -23,17 -29,33 -9,23 -7,31 14,53 19,20 22,31 15,49 -5,12 -5,22 0,22 5,0 9,10 9,23 1,12 2,63 3,112 1,50 -4,110 -11,135 -7,25 -14,52 -15,62 -1,16 -37,49 -88,82 -46,28 -256,49 -412,41 -71,-4 -137,-7 -145,-7 -8,1 -117,3 -241,5 -124,2 -231,7 -237,11 -6,3 -17,0 -25,-8 -8,-8 -18,-12 -21,-8 -4,3 -328,7 -721,7 -558,0 -717,3 -727,13 -14,14 -31,15 -44,2 z m -84,-390 c 0,-5 -7,-10 -15,-10 -8,0 -15,5 -15,10 0,6 7,10 15,10 8,0 15,-4 15,-10 z m 40,-7 c 0,-10 -4,-14 -8,-8 -4,6 -11,13 -16,18 -5,4 -2,7 7,7 10,0 17,-8 17,-17 z m 565,-143 c 3,-5 22,-10 41,-10 49,0 39,-24 -11,-28 -42,-4 -85,14 -85,35 0,15 46,18 55,3 z m 275,-240 c 0,-5 -12,-10 -27,-9 l -28,1 25,8 c 14,4 26,8 28,9 1,1 2,-3 2,-9 z m 796,-1662 c 3,-5 11,-5 19,2 13,11 65,4 65,-9 0,-10 -141,-7 -164,4 -18,8 -19,9 -1,15 22,8 73,1 81,-12 z m -1736,-8 c 0,-5 -10,-10 -22,-10 -19,0 -20,2 -8,10 19,13 30,13 30,0 z m 977,-146 c -3,-3 -12,-4 -19,-1 -8,3 -5,6 6,6 11,1 17,-2 13,-5 z m 32,-65 c -16,-10 -23,-4 -14,10 3,6 11,8 17,5 6,-4 5,-9 -3,-15 z m 146,-49 c 3,-5 2,-10 -4,-10 -5,0 -13,5 -16,10 -3,6 -2,10 4,10 5,0 13,-4 16,-10 z M 9465,5750 c 3,-5 -1,-10 -10,-10 -9,0 -13,5 -10,10 3,6 8,10 10,10 2,0 7,-4 10,-10 z"
               id="path4916" />
            <path
               inkscape:connector-curvature="0"
               d="m 5031,10894 c -25,-18 -55,-112 -41,-129 5,-6 7,-27 3,-46 -3,-19 -7,-79 -7,-134 -2,-85 1,-103 17,-122 12,-13 17,-30 14,-43 -3,-11 0,-20 5,-20 6,0 5,-6 -2,-15 -9,-10 -10,-39 -6,-102 4,-49 3,-102 -2,-119 -12,-38 3,-62 44,-70 30,-6 74,21 74,45 0,17 18,13 29,-6 12,-22 104,-53 125,-41 8,5 35,4 63,-2 26,-6 89,-11 138,-11 549,5 690,3 734,-14 20,-7 47,-16 61,-19 14,-3 38,-17 54,-31 16,-14 35,-25 43,-25 7,0 13,-5 13,-12 0,-6 3,-8 6,-5 4,4 21,-8 38,-27 17,-18 50,-54 74,-79 23,-25 42,-53 42,-61 0,-8 9,-20 20,-26 11,-6 20,-17 20,-24 0,-7 9,-21 20,-31 11,-10 20,-26 20,-36 0,-10 9,-33 19,-51 17,-30 23,-53 38,-138 6,-35 14,-135 15,-196 1,-44 -3,-58 -30,-92 -18,-22 -32,-44 -32,-49 0,-5 -13,-22 -30,-38 -16,-16 -30,-33 -30,-38 0,-4 -11,-23 -25,-41 -14,-18 -25,-39 -25,-45 0,-36 -150,-190 -185,-191 -9,0 -36,-13 -137,-67 -15,-7 -51,-21 -80,-30 -69,-20 -312,-28 -388,-12 -30,7 -83,12 -117,13 -34,1 -64,4 -68,8 -5,5 -55,3 -95,-4 -3,-1 -17,2 -33,6 -17,5 -39,3 -60,-5 -17,-8 -35,-13 -39,-12 -4,2 -51,5 -105,8 -54,3 -106,8 -115,11 -10,3 -38,-4 -63,-15 -40,-18 -45,-24 -46,-53 0,-18 -1,-61 -2,-96 -2,-48 2,-67 15,-78 13,-12 14,-22 7,-47 -5,-18 -9,-46 -9,-62 0,-17 -5,-36 -11,-42 -8,-8 -8,-17 0,-30 7,-14 7,-23 0,-30 -7,-7 -6,-37 3,-92 12,-79 14,-83 58,-120 39,-33 55,-39 105,-44 33,-3 92,-11 130,-17 39,-7 86,-10 105,-9 59,6 440,2 540,-5 52,-3 124,-8 160,-10 36,-2 98,2 139,10 82,17 191,11 228,-12 12,-8 27,-14 34,-14 31,0 118,-57 173,-114 33,-35 77,-72 97,-83 52,-27 69,-48 76,-87 3,-19 16,-45 29,-57 13,-12 24,-28 24,-36 0,-7 4,-13 10,-13 11,0 40,-93 40,-132 0,-16 -5,-28 -12,-28 -7,0 -1,-10 14,-23 20,-17 26,-31 25,-53 -2,-16 5,-40 15,-54 17,-23 17,-30 3,-98 -9,-40 -15,-79 -13,-85 3,-15 -30,-77 -40,-77 -13,0 -33,-41 -38,-78 -7,-53 -78,-167 -153,-246 -67,-69 -108,-96 -195,-128 -26,-9 -68,-27 -93,-39 -24,-12 -47,-19 -50,-15 -3,3 -12,1 -19,-5 -7,-6 -53,-23 -101,-39 -96,-31 -189,-67 -271,-105 -29,-14 -64,-25 -78,-25 -35,0 -67,19 -60,35 6,18 -64,41 -74,24 -4,-6 -75,-9 -186,-8 -260,3 -408,6 -419,9 -5,1 -13,2 -17,1 -4,0 -27,-3 -52,-5 -72,-7 -93,-29 -100,-106 -4,-36 -14,-75 -22,-88 -14,-21 -13,-24 6,-40 16,-13 21,-32 25,-87 3,-38 8,-82 11,-97 4,-19 0,-29 -13,-37 -10,-6 -12,-11 -5,-11 14,0 16,-36 2,-45 -13,-8 -13,-61 1,-87 8,-14 8,-23 0,-31 -15,-15 -14,-27 4,-27 9,0 20,-11 25,-25 10,-26 21,-29 76,-26 17,1 38,-4 45,-11 10,-9 52,-13 141,-15 69,0 141,-5 160,-9 18,-4 38,-6 43,-4 18,6 68,10 195,15 69,2 139,8 155,13 18,5 44,5 65,-1 20,-5 94,-7 172,-3 95,4 139,3 144,-5 5,-8 9,-8 14,0 4,7 18,13 31,15 13,2 41,11 62,20 20,9 54,16 75,15 20,-1 51,3 67,9 17,6 57,15 89,21 33,6 76,19 97,30 21,11 46,24 56,29 10,6 37,18 61,28 24,9 46,23 50,29 7,12 113,86 173,121 11,6 29,22 41,35 13,14 47,43 76,64 28,22 52,43 52,47 0,4 5,8 11,8 16,0 97,87 154,166 27,38 62,82 77,98 16,17 28,36 28,43 0,7 4,13 9,13 5,0 19,26 31,58 13,31 27,62 32,69 6,7 7,17 4,22 -4,5 0,13 7,18 18,11 62,108 76,168 7,28 17,67 22,88 6,21 13,57 15,80 3,22 13,52 23,66 25,36 29,240 6,307 -20,61 -29,144 -14,144 6,0 -1,14 -15,31 -14,17 -26,40 -26,51 0,12 -7,30 -16,40 -10,10 -19,40 -22,68 -2,27 -7,50 -11,50 -3,0 -7,11 -7,25 -1,14 -14,44 -28,66 -42,62 -66,108 -66,124 0,8 -4,15 -10,15 -5,0 -10,5 -10,10 0,10 -23,38 -85,105 -16,18 -43,59 -59,91 -16,32 -52,80 -80,106 -28,26 -55,52 -61,58 -5,6 -29,30 -52,54 -24,24 -43,46 -43,49 0,3 7,12 15,21 20,19 10,42 -57,138 -10,13 -18,35 -19,49 -1,24 16,80 32,109 5,8 14,26 19,40 6,14 14,32 17,40 4,8 7,20 8,27 0,6 10,22 22,35 59,64 116,208 143,363 5,28 15,75 22,105 7,30 12,69 10,85 -4,43 -4,48 2,178 3,65 8,122 11,127 3,5 1,11 -4,14 -5,3 -12,27 -16,53 -4,27 -10,53 -15,58 -7,9 -12,39 -27,158 -3,26 -10,50 -14,53 -5,3 -9,12 -9,21 0,58 -79,231 -120,263 -3,3 -16,22 -29,43 -12,20 -30,43 -39,50 -10,6 -29,29 -44,49 -31,41 -149,156 -152,148 -1,-3 -23,13 -48,35 -46,40 -100,61 -173,68 -39,3 -72,14 -127,43 -14,8 -41,14 -60,14 -18,0 -44,7 -56,16 -12,8 -30,17 -40,19 -9,2 -37,9 -62,15 -102,27 -248,34 -530,28 -19,0 -116,3 -215,7 -369,14 -492,14 -514,-1 z M 7110,9066 c 0,-22 -6,-36 -16,-40 -9,-4 -19,-5 -21,-2 -4,4 28,76 34,76 2,0 3,-15 3,-34 z M 5360,8280 c 0,-13 -20,-13 -40,0 -12,8 -9,10 13,10 15,0 27,-4 27,-10 z m 1600,-279 c 0,-12 -40,-41 -57,-41 -21,0 -15,26 10,38 28,14 47,15 47,3 z M 6040,6106 c 0,-2 -9,-6 -20,-9 -11,-3 -18,-1 -14,4 5,9 34,13 34,5 z"
               id="path4918" />
            <path
               inkscape:connector-curvature="0"
               d="m 13519,10872 c -15,-2 -35,-12 -45,-23 -9,-10 -25,-19 -35,-19 -10,0 -21,-4 -24,-10 -3,-5 -14,-10 -24,-10 -30,0 -63,-22 -125,-82 -32,-32 -62,-58 -66,-58 -7,0 -30,-79 -35,-120 -1,-8 -5,-22 -8,-30 -5,-14 -20,-102 -22,-127 0,-6 -3,-14 -7,-18 -3,-4 -2,-21 3,-38 5,-17 6,-65 3,-107 -8,-96 -8,-96 -1,-157 4,-29 2,-53 -3,-53 -14,0 -7,-50 9,-59 9,-6 12,-18 7,-37 -4,-16 -9,-85 -11,-154 -2,-69 -7,-175 -9,-236 -4,-90 -2,-115 10,-133 12,-17 14,-38 10,-94 -3,-40 -6,-81 -6,-92 -2,-31 -2,-257 0,-290 1,-16 1,-34 1,-40 -6,-37 -8,-142 -4,-149 3,-4 5,-36 4,-70 0,-33 0,-83 1,-111 2,-43 1,-121 -1,-340 -1,-22 -1,-51 -2,-65 -5,-69 7,-815 13,-867 2,-18 -1,-79 -7,-136 -7,-76 -7,-109 1,-126 8,-15 9,-34 3,-54 -5,-19 -5,-35 1,-41 5,-5 6,-16 2,-25 -8,-18 -8,-38 1,-61 12,-32 14,-59 6,-62 -5,-2 -12,-52 -15,-113 -8,-151 -7,-177 8,-186 11,-7 11,-9 0,-9 -11,0 -12,-10 -6,-42 3,-24 6,-73 6,-109 -1,-36 2,-79 7,-96 5,-17 6,-48 2,-69 -4,-22 -4,-53 1,-69 4,-17 13,-59 18,-94 6,-35 18,-80 27,-100 9,-20 18,-44 20,-55 5,-28 13,-38 93,-123 58,-61 85,-81 120,-92 25,-7 52,-16 60,-20 8,-4 30,-4 50,0 121,26 165,30 297,30 82,0 161,-4 176,-10 16,-6 61,-9 105,-5 128,8 387,11 407,4 11,-4 35,-3 55,1 80,17 111,18 211,2 68,-11 171,-17 299,-18 107,-1 204,-4 215,-8 11,-3 58,-2 105,4 107,12 139,12 154,0 8,-6 46,-5 111,3 55,7 109,10 121,5 11,-4 91,-6 178,-5 86,1 159,-1 162,-6 5,-8 32,-5 126,15 81,18 139,57 167,112 12,22 34,63 49,90 33,57 52,142 52,226 0,65 -9,94 -39,126 -12,12 -21,27 -21,32 0,15 -50,60 -90,81 -52,27 -96,33 -345,45 -55,3 -120,9 -145,15 -45,9 -65,11 -395,32 -322,22 -525,12 -575,-27 -25,-20 -76,-25 -157,-15 -43,5 -100,12 -128,15 -78,8 -138,20 -162,33 -27,15 -80,16 -85,1 -2,-5 -45,-12 -98,-14 -52,-3 -119,-7 -148,-11 -29,-3 -58,-1 -65,4 -7,5 -26,13 -43,16 -18,4 -52,20 -76,35 -51,33 -57,49 -64,179 -2,46 -9,92 -15,103 -8,15 -7,26 4,42 10,15 12,29 6,46 -5,12 -7,73 -3,135 5,102 5,162 1,256 -1,19 2,80 7,135 5,55 8,109 7,120 -5,57 -8,81 -14,95 -13,34 -13,47 -1,88 9,29 10,51 4,68 -15,38 -12,75 7,96 10,12 12,18 4,18 -21,0 -7,44 16,50 22,5 63,50 63,69 0,6 5,11 10,11 6,0 10,-5 10,-11 0,-17 108,-4 130,16 15,13 38,16 132,14 109,-3 116,-2 162,25 51,30 66,30 140,-4 86,-39 90,-39 342,-41 143,-1 212,3 238,12 29,11 45,11 87,0 87,-23 343,-11 417,18 30,12 70,21 90,21 67,0 129,8 168,20 22,7 45,14 52,16 7,2 12,20 12,43 0,22 5,43 10,46 6,4 8,10 5,15 -3,5 5,17 18,27 12,10 33,43 46,73 13,30 32,64 42,76 23,24 24,71 4,98 -8,11 -15,36 -15,55 0,70 -134,161 -238,161 -15,0 -47,6 -72,14 -31,9 -53,10 -70,4 -14,-5 -47,-6 -75,-1 -27,4 -57,6 -65,5 -15,-3 -98,-9 -250,-17 -41,-2 -106,0 -145,5 -122,16 -166,20 -325,27 -376,17 -468,21 -520,27 -30,3 -92,7 -138,7 -54,1 -102,8 -135,20 -29,11 -58,19 -67,19 -8,0 -38,16 -67,36 -50,34 -52,38 -58,92 -4,31 -11,73 -16,92 -8,32 -10,64 -8,130 1,14 0,34 -1,45 -2,34 19,118 35,135 8,9 15,29 15,44 0,15 5,37 11,48 8,14 8,23 0,31 -15,15 -15,177 0,177 7,0 8,7 4,18 -8,18 -9,188 -1,201 3,4 9,35 15,69 12,74 33,108 78,127 18,8 37,24 42,37 5,13 22,38 39,56 l 29,33 104,-6 c 57,-3 131,-8 164,-10 103,-6 163,-6 391,-1 211,6 222,5 244,-14 17,-15 26,-17 36,-9 8,7 66,11 154,10 116,-1 149,-4 183,-20 26,-12 56,-18 77,-15 132,16 287,19 305,4 10,-8 14,-8 17,1 6,17 103,27 153,16 22,-5 76,-11 120,-13 72,-3 96,1 160,26 11,4 45,13 75,20 67,15 85,26 93,62 4,15 14,34 23,43 9,9 17,28 18,43 0,15 6,32 12,37 6,6 18,29 27,52 15,37 15,47 2,90 -8,26 -15,69 -15,96 0,47 -14,85 -37,100 -7,4 -13,21 -13,37 0,16 -7,35 -16,42 -8,7 -31,28 -49,46 -23,22 -49,35 -84,42 -28,5 -72,16 -98,24 -26,8 -104,17 -173,21 -69,3 -138,8 -155,10 -16,3 -118,7 -225,10 -196,5 -236,6 -565,25 -313,18 -509,22 -534,13 -14,-6 -43,-6 -66,-2 -24,4 -98,8 -166,8 -68,0 -178,1 -244,1 -379,4 -483,5 -506,2 z m 99,-291 c 9,-5 14,-13 10,-17 -4,-4 -14,-2 -21,4 -10,8 -17,8 -24,1 -8,-8 -17,-7 -34,1 l -22,12 23,18 c 20,15 26,16 37,4 8,-7 22,-18 31,-23 z m 347,-112 c -3,-5 16,-8 45,-8 65,2 71,-5 25,-27 -28,-13 -42,-15 -54,-7 -24,15 -81,26 -81,16 0,-5 5,-14 12,-21 9,-9 9,-12 0,-12 -11,0 -32,31 -32,48 0,9 70,31 83,24 4,-2 5,-7 2,-13 z m 1638,-33 c 26,-9 57,-16 67,-16 21,0 27,-15 10,-25 -5,-3 -10,-2 -10,3 0,5 -29,12 -65,16 -78,8 -95,14 -95,32 0,8 -6,14 -12,15 -7,0 -4,4 7,9 13,5 26,3 35,-5 8,-7 37,-20 63,-29 z m -1988,-26 c -3,-5 -11,-10 -16,-10 -6,0 -7,5 -4,10 3,6 11,10 16,10 6,0 7,-4 4,-10 z m 905,-7 c 0,-5 -5,-15 -10,-23 -8,-12 -10,-11 -10,8 0,12 5,22 10,22 6,0 10,-3 10,-7 z m -825,-13 c 4,-6 -10,-10 -35,-10 -25,0 -39,4 -35,10 3,6 19,10 35,10 16,0 32,-4 35,-10 z m 1902,-36 c -3,-3 -12,-4 -19,-1 -8,3 -5,6 6,6 11,1 17,-2 13,-5 z m 53,-14 c 0,-5 9,-10 19,-10 11,0 23,-4 26,-10 3,-5 -2,-10 -12,-10 -29,1 -72,40 -43,40 6,0 10,-4 10,-10 z m 303,-11 c -8,-8 -19,-8 -40,-1 -28,10 -28,10 12,11 28,1 36,-2 28,-10 z m -168,-19 c 4,-6 -7,-10 -27,-9 -27,0 -30,2 -13,9 27,12 33,12 40,0 z m 74,-36 c 2,-2 2,-6 -1,-9 -9,-9 -58,6 -58,17 0,9 49,3 59,-8 z m 66,-3 c 3,-5 1,-12 -5,-16 -14,-9 -52,4 -45,16 8,12 42,12 50,0 z M 14276,8429 c 24,-6 44,-15 44,-19 0,-9 -81,9 -94,21 -13,12 -4,11 50,-2 z m 1102,3 c 15,-10 6,-42 -12,-42 -6,0 -19,6 -28,14 -29,21 8,47 40,28 z m -673,-176 c -2,-11 -4,-23 -4,-25 -1,-2 -12,4 -26,13 -13,9 -36,16 -50,16 -36,0 -31,12 13,31 33,14 39,14 54,1 10,-8 16,-24 13,-36 z m 110,24 c 3,-5 -3,-10 -14,-10 -12,0 -21,5 -21,10 0,6 6,10 14,10 8,0 18,-4 21,-10 z m 404,-101 c 27,-10 31,-13 17,-21 -10,-5 -24,-5 -37,2 -11,6 -35,11 -52,10 -18,-1 -36,-1 -42,0 -5,1 -20,1 -32,0 -24,-2 -32,15 -10,23 20,8 119,0 156,-14 z m -22,-145 c -3,-3 -12,-4 -19,-1 -8,3 -5,6 6,6 11,1 17,-2 13,-5 z m 158,-74 c 3,-6 -1,-7 -9,-4 -18,7 -21,14 -7,14 6,0 13,-4 16,-10 z m -827,-2106 c 12,-4 22,-10 22,-15 0,-14 -43,-10 -64,6 -20,15 -20,15 0,15 10,0 29,-3 42,-6 z m -478,-128 c 0,-2 -3,-11 -6,-20 -5,-12 -9,-13 -19,-3 -7,7 -11,15 -8,20 4,7 33,10 33,3 z"
               id="path4920" />
            <path
               inkscape:connector-curvature="0"
               d="m 12395,10850 c 3,-5 16,-10 28,-9 21,0 21,1 2,9 -28,12 -37,12 -30,0 z"
               id="path4922" />
            <path
               inkscape:connector-curvature="0"
               d="m 4280,10814 c -25,-7 -62,-13 -83,-13 -21,-1 -48,-7 -60,-15 -26,-17 -127,-30 -127,-16 0,5 7,13 16,18 15,8 14,10 -2,16 -11,4 -21,1 -26,-9 -5,-8 -16,-15 -24,-15 -9,0 -21,-6 -28,-12 -7,-7 -45,-38 -84,-68 -41,-32 -71,-62 -69,-70 1,-9 -5,-34 -14,-55 -34,-83 -40,-118 -45,-247 -6,-168 -6,-186 1,-393 7,-193 7,-234 -2,-249 -4,-5 -8,-23 -10,-38 -1,-15 -4,-31 -4,-35 -1,-4 2,-19 8,-33 6,-16 7,-60 2,-119 -4,-52 -6,-113 -3,-135 10,-84 11,-176 3,-182 -5,-3 -7,-8 -5,-12 10,-16 16,-201 6,-207 -10,-6 -6,-137 5,-155 4,-6 -1,-22 -9,-36 -13,-19 -14,-29 -5,-46 10,-18 14,-93 9,-153 -1,-11 1,-67 4,-125 3,-58 7,-150 9,-205 2,-55 9,-112 15,-127 10,-24 8,-93 -2,-124 -2,-6 0,-17 4,-25 5,-7 5,-18 0,-24 -11,-13 -16,-77 -7,-92 4,-6 2,-13 -4,-15 -6,-2 -11,-15 -11,-28 1,-61 13,-213 18,-222 3,-5 0,-16 -7,-25 -11,-13 -10,-17 4,-28 15,-11 16,-15 2,-42 -13,-26 -13,-36 -2,-69 15,-42 14,-140 -2,-201 -10,-39 -9,-92 2,-110 4,-6 6,-35 6,-65 -1,-30 2,-64 5,-76 5,-13 1,-34 -8,-52 -12,-26 -12,-30 0,-30 8,0 14,-3 15,-7 0,-5 2,-23 3,-40 2,-18 0,-33 -5,-33 -5,0 -9,-15 -9,-34 0,-28 4,-35 28,-41 26,-7 26,-8 6,-17 -25,-12 -37,-77 -35,-190 1,-47 -3,-71 -13,-81 -14,-13 -13,-15 5,-20 17,-5 20,-14 20,-54 0,-85 14,-199 26,-215 8,-9 9,-18 3,-24 -13,-13 16,-113 35,-121 8,-3 12,-9 10,-14 -7,-10 32,-73 68,-112 15,-15 24,-33 21,-40 -2,-7 16,-28 42,-47 25,-19 50,-42 54,-50 5,-9 24,-17 47,-18 21,-1 63,-12 94,-23 54,-20 58,-20 89,-4 18,9 47,18 66,20 18,2 40,10 49,18 8,9 24,18 34,22 23,7 35,31 32,68 -2,15 3,27 9,27 8,0 7,8 -4,25 -9,14 -13,25 -8,25 10,0 9,227 -1,236 -3,4 -1,16 4,27 8,15 8,22 -2,28 -8,5 -9,9 -4,9 6,0 12,19 14,43 4,44 4,51 3,162 -1,39 -1,79 0,90 0,11 -3,102 -6,203 -4,123 -3,182 4,182 7,0 7,6 1,18 -19,36 -16,963 5,1396 5,112 4,137 -6,131 -8,-5 -11,-4 -7,2 5,9 11,258 7,313 -1,8 -1,50 0,92 1,42 -3,86 -9,97 -7,12 -9,38 -5,63 9,55 11,150 5,163 -3,6 -6,24 -7,40 -1,17 -5,59 -9,95 -9,89 -15,202 -14,280 0,36 1,85 1,110 1,67 -11,276 -18,313 -13,72 -12,90 2,104 8,8 11,19 8,25 -10,15 -11,287 -2,282 4,-3 6,1 3,8 -3,7 -7,67 -10,133 -3,66 -6,125 -6,130 -1,6 1,32 4,58 7,60 -7,101 -39,116 -14,6 -26,10 -27,10 -1,-1 -22,-7 -47,-15 z M 3984,9155 c 3,-8 3,-22 0,-30 -5,-12 -8,-12 -20,0 -8,7 -11,21 -8,29 8,20 20,20 28,1 z m 3,-116 c -13,-32 -22,-37 -31,-14 -6,17 3,47 18,57 17,11 24,-12 13,-43 z m 63,-3234 c -7,-8 -19,-15 -27,-15 -13,0 -13,3 -3,15 7,8 19,15 27,15 13,0 13,-3 3,-15 z"
               id="path4924" />
            <path
               inkscape:connector-curvature="0"
               d="m 17915,10810 c -3,-5 -12,-7 -19,-4 -7,3 -16,-2 -19,-10 -4,-9 -13,-16 -20,-16 -8,0 -20,-6 -27,-14 -6,-8 -18,-12 -26,-9 -8,3 -14,1 -14,-5 0,-20 -57,-32 -141,-29 -85,2 -87,2 -119,-30 -19,-18 -37,-33 -42,-33 -4,0 -8,-7 -8,-15 0,-18 -21,-66 -49,-111 -10,-17 -21,-46 -25,-65 -3,-19 -10,-53 -16,-77 -6,-24 -7,-48 -4,-54 4,-6 3,-8 -3,-5 -6,4 -15,-10 -21,-33 -5,-21 -6,-40 -1,-42 5,-2 1,-27 -8,-57 -12,-43 -13,-59 -4,-73 6,-10 9,-24 5,-30 -4,-6 -6,-50 -6,-97 1,-47 1,-120 0,-161 -3,-125 2,-223 13,-236 7,-8 7,-19 1,-31 -13,-24 -13,-274 -1,-346 5,-31 7,-63 3,-69 -4,-7 -7,-33 -5,-58 1,-25 -2,-57 -7,-70 -9,-25 5,-153 21,-177 8,-13 -1,-43 -15,-43 -8,0 -12,-156 -8,-306 0,-23 -4,-54 -10,-69 -6,-16 -7,-31 -2,-34 13,-8 6,-145 -7,-149 -7,-2 -8,-10 -1,-21 7,-14 23,-219 21,-276 -5,-115 -11,-244 -15,-284 -3,-28 0,-62 5,-75 8,-17 8,-47 1,-101 -6,-45 -7,-87 -2,-100 5,-13 10,-61 12,-107 2,-58 7,-86 18,-94 11,-9 12,-15 3,-26 -8,-9 -10,-42 -7,-97 3,-48 0,-98 -7,-118 -7,-23 -8,-38 -1,-46 6,-7 11,-26 10,-42 0,-17 4,-57 9,-90 5,-33 8,-80 6,-105 -2,-25 -3,-58 -2,-75 0,-16 0,-46 1,-65 0,-19 -1,-48 -2,-65 -1,-16 1,-129 5,-250 3,-121 6,-245 5,-276 -1,-40 5,-67 19,-92 14,-24 16,-38 9,-45 -15,-15 5,-61 48,-106 19,-20 34,-40 34,-46 0,-5 18,-15 40,-21 22,-7 40,-16 40,-20 0,-13 63,-28 133,-32 37,-2 73,-9 79,-15 25,-25 57,-8 141,73 23,23 52,48 65,57 13,8 31,38 41,64 10,27 27,53 37,58 17,8 19,23 22,135 2,72 7,127 13,129 6,3 6,8 0,16 -7,8 -11,89 -12,207 -1,400 0,439 12,439 7,0 5,8 -6,20 -19,21 -20,35 -13,208 2,45 1,82 -3,82 -4,0 -8,30 -9,68 -6,205 -6,338 0,347 4,6 3,44 -2,85 -10,88 0,339 14,358 6,7 7,12 1,12 -18,0 -32,68 -21,107 5,20 7,49 4,64 -4,20 -1,31 11,38 16,8 15,11 0,35 -21,31 -21,43 -1,63 9,10 13,26 10,42 -7,38 -20,204 -17,216 2,6 4,64 6,130 1,66 6,131 9,145 4,15 1,32 -7,44 -12,16 -11,28 1,85 8,36 18,75 23,86 11,28 8,105 -4,105 -6,0 -7,14 -2,38 7,31 13,191 15,372 0,25 -4,46 -10,48 -17,6 -11,19 13,26 15,4 18,8 10,14 -23,15 -39,351 -19,391 11,21 11,37 0,90 -7,35 -13,117 -13,182 1,65 -2,122 -5,128 -4,5 -2,27 2,49 7,28 6,44 -4,57 -10,13 -14,49 -14,109 1,146 -22,207 -82,221 -54,13 -77,14 -83,5 z"
               id="path4926" />
            <path
               inkscape:connector-curvature="0"
               d="m 19503,10807 c -18,-5 -33,-14 -33,-18 0,-14 -141,-3 -151,12 -6,10 -9,10 -9,1 0,-9 -19,-11 -77,-7 -187,13 -247,11 -283,-8 -48,-26 -140,-44 -227,-45 -74,-1 -72,0 -139,-59 -18,-16 -20,-28 -17,-93 1,-41 5,-97 7,-125 3,-27 8,-102 11,-165 6,-87 11,-118 23,-127 9,-8 11,-13 4,-13 -7,0 -10,-9 -8,-22 3,-13 5,-26 5,-29 1,-4 29,-9 64,-13 91,-9 198,-23 232,-31 17,-3 93,-6 170,-6 82,0 155,-4 175,-11 19,-6 48,-11 63,-9 16,1 36,-4 45,-12 9,-9 44,-25 77,-36 33,-12 62,-26 63,-31 2,-6 9,-10 15,-10 11,0 27,-12 101,-76 15,-13 42,-32 59,-42 18,-9 39,-26 48,-37 10,-12 36,-30 58,-40 22,-11 41,-23 41,-27 0,-5 6,-8 14,-8 18,0 74,-69 111,-135 15,-27 31,-55 37,-62 8,-11 32,-85 44,-138 17,-80 36,-183 36,-198 -1,-10 3,-29 8,-42 6,-15 6,-27 -1,-30 -5,-4 -6,-11 -2,-18 13,-22 10,-93 -7,-127 -9,-19 -15,-40 -13,-46 2,-6 -5,-34 -15,-62 -13,-34 -16,-54 -9,-61 12,-12 -49,-139 -77,-160 -10,-8 -26,-23 -35,-34 -9,-11 -26,-31 -38,-44 -13,-13 -23,-28 -23,-32 0,-18 -63,-71 -74,-62 -6,5 -28,9 -49,8 -39,-1 -39,-1 -102,-79 -8,-9 -39,-24 -69,-33 -30,-9 -59,-22 -65,-29 -13,-15 -135,-31 -220,-28 -29,1 -61,-3 -71,-8 -10,-6 -30,-6 -48,-1 -21,7 -38,5 -59,-6 -35,-18 -128,-29 -145,-16 -7,5 -17,9 -23,8 -5,-1 -37,-5 -70,-9 -55,-6 -93,-2 -185,22 -33,8 -38,6 -81,-37 -45,-46 -46,-47 -43,-108 1,-34 6,-68 10,-75 5,-7 10,-74 11,-148 4,-226 7,-239 75,-259 24,-7 48,-16 53,-21 6,-4 24,-10 40,-14 99,-23 195,-59 195,-72 0,-8 5,-14 11,-14 22,0 99,-44 99,-56 0,-6 7,-17 15,-24 9,-7 23,-29 32,-49 10,-20 21,-40 25,-46 39,-49 98,-137 98,-145 0,-6 3,-10 8,-10 9,0 42,-74 42,-95 0,-8 6,-18 13,-22 16,-10 100,-143 90,-143 -4,0 2,-6 12,-14 26,-18 68,-102 59,-117 -4,-7 -3,-9 3,-6 10,6 63,-37 63,-52 0,-4 15,-23 33,-42 17,-19 39,-47 47,-61 17,-29 86,-88 104,-88 6,0 17,-9 24,-21 8,-12 9,-18 3,-14 -6,3 -11,-1 -11,-9 0,-9 5,-16 11,-16 6,0 8,-8 4,-19 -3,-11 -2,-22 3,-25 5,-3 16,-33 23,-67 8,-38 20,-64 31,-70 10,-5 18,-19 18,-29 0,-11 4,-20 9,-20 5,0 14,-14 22,-31 7,-18 22,-43 34,-58 12,-14 29,-47 39,-73 10,-26 22,-50 27,-54 5,-3 18,-22 29,-43 10,-21 36,-56 57,-78 21,-22 44,-52 51,-67 6,-14 18,-29 26,-32 8,-3 13,-11 10,-18 -3,-7 21,-35 51,-62 31,-27 73,-63 93,-81 l 36,-32 23,26 c 21,21 29,24 61,18 20,-3 41,-11 46,-16 6,-5 16,-9 23,-9 7,0 31,-11 53,-25 49,-31 52,-31 87,-1 16,13 47,28 68,32 22,4 56,19 75,33 44,33 120,108 120,119 0,4 16,25 35,46 19,21 35,45 35,53 0,8 -14,56 -31,106 -17,53 -32,121 -35,162 -3,46 -9,74 -19,81 -8,6 -15,16 -15,23 0,6 -4,11 -8,11 -4,0 -13,14 -19,30 -8,23 -8,30 0,30 7,0 -1,13 -18,28 -16,15 -36,39 -43,52 -19,38 -53,94 -87,142 -17,24 -39,63 -50,88 -11,25 -25,51 -32,58 -7,7 -13,18 -13,23 0,6 -11,25 -25,43 -14,18 -25,36 -25,40 0,4 -6,14 -12,21 -29,32 -36,43 -43,65 -6,20 -88,123 -132,168 -7,8 -18,23 -25,35 -6,12 -30,47 -54,78 -36,47 -42,61 -37,90 3,19 10,37 15,40 7,4 6,9 -1,13 -6,4 -16,4 -21,1 -6,-4 -28,12 -51,34 -22,23 -37,41 -34,41 6,0 -24,62 -34,70 -12,9 -91,139 -91,150 0,5 -4,10 -8,10 -4,0 -13,19 -19,42 -10,37 -9,47 13,88 42,81 75,112 122,115 23,1 48,7 55,13 8,7 16,10 19,7 2,-3 10,6 18,19 14,27 56,51 115,66 22,5 68,28 102,50 34,22 66,40 71,40 4,0 30,28 58,61 27,34 63,76 80,93 18,17 34,43 38,58 4,19 11,26 21,22 9,-4 18,1 22,12 3,11 21,33 39,50 28,27 30,32 15,41 -15,9 -14,14 5,54 20,40 35,95 40,143 1,11 13,30 28,42 16,15 22,25 15,30 -8,4 -7,9 1,14 12,8 39,68 44,100 1,8 10,50 20,93 10,43 16,89 13,103 -2,14 1,28 7,30 18,7 13,147 -10,244 -13,57 -17,105 -14,148 3,34 2,62 -2,62 -3,0 -13,19 -21,43 -8,23 -20,58 -27,77 -16,48 -20,79 -10,85 5,3 -2,22 -15,42 -14,20 -25,42 -25,50 0,25 -52,146 -71,167 -14,14 -16,23 -8,33 7,8 8,13 1,13 -5,0 -12,12 -15,28 -3,15 -20,43 -37,62 -17,19 -38,47 -48,63 -9,15 -19,27 -23,27 -4,0 -25,24 -46,53 -21,28 -57,70 -79,92 -23,22 -73,70 -111,107 -38,37 -90,77 -115,87 -24,11 -50,32 -58,46 -7,14 -16,25 -20,25 -3,0 -15,8 -26,18 -11,10 -32,22 -48,26 -15,4 -38,17 -50,29 -39,38 -136,73 -180,65 -14,-3 -26,-1 -26,4 0,5 -6,8 -12,7 -7,-1 -20,0 -28,4 -106,41 -217,59 -267,44 z m 277,-646 c 0,-5 -7,-14 -15,-21 -16,-14 -18,-10 -9,14 6,17 24,22 24,7 z m -766,-8 c -5,-5 -12,-12 -16,-18 -4,-6 -8,-2 -8,8 0,9 7,17 17,17 9,0 12,-3 7,-7 z m 1269,-616 c -3,-20 -8,-37 -12,-37 -3,0 -14,19 -24,41 -16,32 -17,42 -6,55 11,13 14,13 30,-3 14,-14 17,-27 12,-56 z m 343,-3422 c 6,-19 8,-35 4,-35 -4,0 -11,11 -14,24 -3,13 -9,32 -13,43 -3,10 -2,15 2,10 5,-4 14,-23 21,-42 z m 54,-61 c 0,-8 -4,-14 -9,-14 -12,0 -32,26 -25,33 10,9 34,-4 34,-19 z"
               id="path4928" />
            <path
               inkscape:connector-curvature="0"
               d="m 12166,10295 c -3,-8 -1,-15 4,-15 6,0 10,7 10,15 0,8 -2,15 -4,15 -2,0 -6,-7 -10,-15 z"
               id="path4930" />
            <path
               inkscape:connector-curvature="0"
               d="m 13057,9640 c -6,-16 -15,-30 -19,-30 -4,0 -8,-9 -8,-21 0,-11 -10,-35 -22,-51 -14,-21 -17,-29 -7,-26 14,5 61,82 78,131 14,38 -7,36 -22,-3 z"
               id="path4932" />
          </g>
        </g>
      </g>
      <path
         id="path882"
         d="m 103.60061,199.52905 c 17.88434,5.93886 61.77006,25.23373 89.4005,25.23373 1.62907,29.68787 48.76583,534.38172 53.64597,577.37395 -11.38225,-1.48472 -43.89279,-5.93886 -56.89703,-20.72149 6.50211,-26.7249 -61.76298,-532.90347 -86.14945,-581.88619 z"
         style="fill:url(#linearGradient866);fill-rule:evenodd"
         inkscape:connector-curvature="0" />
      <path
         id="path883"
         d="m 207.6344,230.70164 c 8.12411,2.96297 8.12411,2.96297 22.75739,1.47827 1.622,29.68788 42.26375,531.41873 47.13678,574.41098 -11.37517,-1.48472 -17.87728,-1.48472 -19.50635,-2.96944 -6.50211,-50.41581 -45.51478,-515.03522 -50.38782,-572.91981 z"
         style="fill:url(#linearGradient5002);fill-rule:evenodd"
         inkscape:connector-curvature="0" />
      <path
         id="path889"
         d="m 96.985166,222.70354 c 65.219444,62.31935 316.301444,50.24337 501.675524,-5.53863 -3.04567,10.86424 -7.0121,18.10707 -7.57873,22.15454 -89.49966,76.1724 -400.64487,98.33342 -488.61462,1.38789 1.30326,0.0969 -2.776504,-13.53673 -5.482174,-18.0038 z"
         style="fill:#f6cc1d;fill-opacity:0.81960784;fill-rule:evenodd;stroke:#000000;stroke-width:5.70975037pt;stroke-linecap:round;stroke-linejoin:round"
         inkscape:connector-curvature="0"
         sodipodi:nodetypes="ccccc" />
      <path
         id="path925"
         d="M 79.568288,169.60234 C 92.848745,228.10662 512.46873,277.57995 624.15915,161.1459"
         style="fill:none;stroke:#000000;stroke-width:6.76182175pt;stroke-linecap:round"
         inkscape:connector-curvature="0" />
      <path
         id="path844"
         d="m -219.46,-9.8264 c 4.04,1.3301 2.64,-4.4786 1,-5.7686 0.91,0.086 0.14,-1.01 0.14,-2.48 0.72,-0.72 0.13,-1.34 0.13,-2.222 -0.99,-0.993 1,-1.994 1,-3.554 0,-1.554 -0.43,-2.674 -0.43,-4.3 0,-2.361 -0.25,-1.523 -1.41,-5.009 1.09,-0.424 2.28,-1.484 0.9,-2.692 2.16,-0.239 3.22,-2.354 0.54,-4.666 4.07,0 -4.7106,-3.815841 2.2094,-2.084841 2.22,-0.556 1.8,-2.215 1.8,-4.308 5.53242,12.175864 8.69664,1.863263 9.33664,-0.757737 1.35,4.4 8.78336,3.344737 8.78336,-2.114263 0.18,6.751 7.12,3.405 8.44,3.949 -1.62,1.866 2.0606,4.164841 4.7906,4.238841 -6.31,4.732 -5.18,13.001 2.51,14.538 3.89,0 5.38,-3.279 5.38,-7.897 1.26,2.644 6.98,4.279 7,-0.18 2.88,5.545 6.5,-1.47 4.31,-2.154 5.03,1.906 3.09,-7.078 1.26,-9.153 2.87,-0.915 1.95,-7.521 0.18,-9.693 2.62,2.666 6.74,-0.831 6.28,-5.923 1.23,3.468 9.15,-0.368 3.77,-8.435 0,-1.545 -4.49,-1.749 -5.57,-0.539 -0.01,-5.446 -4.1,-9.692 -7,-8.615 1.8,-2.692 -9.04,-4.899 -11.3,-0.538 1.35,-5.701 -13.81,-9.334 -14.18,-6.103 -1.75,-2.513 -11.77,-2.558 -14.72,6.282 0,-4.861 -16.31,-7 -15.97,0.359 -3.49,-2.433 -9.23,0.359 -8.8,3.231 -5.38,-2.704 -7.84,9.561 -3.41,10.23 -2.51,2.263 -2.69,11.311 0.54,11.128 -1.97,2.13 -0.9,8.437 1.26,8.616 -1.68,2.32 0.24,13.674 7.18,11.846 0,2.523 2.85,4.865 1.96,7.53 0,1.545 -0.07,3.537 -0.07,5.171 0.37,0.744 -0.27,3.238 1.53,4.462 -4.22,1.76 -3.97,7.203 0.63,7.6056 z"
         inkscape:connector-curvature="0"
         style="fill:#ffffff;fill-rule:evenodd;stroke:#000000;stroke-width:1pt;stroke-linecap:round;stroke-linejoin:round"
         sodipodi:nodetypes="ccccsscccccccccccccccccccccccccccccccc"
         transform="matrix(8.260091,0,0,7.2557447,1962.9002,653.0841)" />
      <path
         id="path846"
         d="m -225.81,-57.844 c -1.51,-1.65 1.22,-7.04 4.24,-6.763 0.69,-2.474 2.58,-2.892 4.69,-2.187 -1.05,-2.045 1.5,-3.992 3.75,-1.682 1.51,-2.622 4.67,-4.645 6.35,-3.231 -0.13,-3.373 6.07,-6.794 8.33,-3.837 0,0.606 -0.36,1.875 0,1.875"
         style="fill:none;stroke:#000000;stroke-width:1pt;stroke-linecap:round;stroke-linejoin:round"
         inkscape:connector-curvature="0"
         transform="matrix(8.260091,0,0,7.2557447,1962.9002,653.0841)" />
      <path
         id="path847"
         d="m -188.76,-68.044 c -0.1,-4.721 14.01,-8.591 11.25,-0.313 1.27,-0.634 6.88,-1.299 5.84,2.314 4.13,-0.466 10.4,1.104 6.67,6.688 2.39,1.806 1.33,6.696 -0.32,5.061"
         style="fill:none;stroke:#000000;stroke-width:1pt;stroke-linecap:round;stroke-linejoin:round"
         inkscape:connector-curvature="0"
         transform="matrix(8.260091,0,0,7.2557447,1962.9002,653.0841)" />
      <path
         id="path869"
         d="m 174.91844,794.90682 c 0,0 -16.17737,31.11448 -5.3901,39.3127 8.98821,13.10423 89.88923,42.60491 165.40013,42.60491 -23.37359,-16.33188 -104.2746,-27.82231 -160.01003,-81.91761 z"
         style="fill:url(#linearGradient842);fill-rule:evenodd"
         inkscape:connector-curvature="0" />
    </g>
  </g>
  <metadata
     id="metadata34">
    <rdf:RDF>
      <cc:Work>
        <dc:format>image/svg+xml</dc:format>
        <dc:type
           rdf:resource="http://purl.org/dc/dcmitype/StillImage" />
        <cc:license
           rdf:resource="http://creativecommons.org/publicdomain/zero/1.0/" />
        <dc:publisher>
          <cc:Agent
             rdf:about="http://openclipart.org/">
            <dc:title>Openclipart</dc:title>
          </cc:Agent>
        </dc:publisher>
        <dc:title></dc:title>
        <dc:date>2008-02-25T14:25:59</dc:date>
        <dc:description>A glass full of cold beer</dc:description>
        <dc:source>http://openclipart.org/detail/14856/beer-glass-by-nicubunu</dc:source>
        <dc:creator>
          <cc:Agent>
            <dc:title>nicubunu</dc:title>
          </cc:Agent>
        </dc:creator>
        <dc:subject>
          <rdf:Bag>
            <rdf:li>alcohol</rdf:li>
            <rdf:li>beer</rdf:li>
            <rdf:li>beverage</rdf:li>
            <rdf:li>clip art</rdf:li>
            <rdf:li>clipart</rdf:li>
            <rdf:li>drink</rdf:li>
            <rdf:li>foam</rdf:li>
            <rdf:li>food</rdf:li>
            <rdf:li>glass</rdf:li>
            <rdf:li>image</rdf:li>
            <rdf:li>media</rdf:li>
            <rdf:li>party</rdf:li>
            <rdf:li>png</rdf:li>
            <rdf:li>public domain</rdf:li>
            <rdf:li>svg</rdf:li>
          </rdf:Bag>
        </dc:subject>
      </cc:Work>
      <cc:License
         rdf:about="http://creativecommons.org/publicdomain/zero/1.0/">
        <cc:permits
           rdf:resource="http://creativecommons.org/ns#Reproduction" />
        <cc:permits
           rdf:resource="http://creativecommons.org/ns#Distribution" />
        <cc:permits
           rdf:resource="http://creativecommons.org/ns#DerivativeWorks" />
      </cc:License>
    </rdf:RDF>
  </metadata>
  <metadata
     id="metadata38">
    <rdf:RDF
       id="RDF22">
      <cc:Work
         id="Work23"
         rdf:about="">
        <dc:title
           id="title24">Clipart by Nicu Buculei - beer</dc:title>
        <dc:rights
           id="rights26">
          <cc:Agent
             id="Agent27">
            <dc:title
               id="title28">Nicu Buculei</dc:title>
          </cc:Agent>
        </dc:rights>
        <dc:type
           id="type30"
           rdf:resource="http://purl.org/dc/dcmitype/StillImage" />
        <cc:license
           id="license31"
           rdf:resource="http://web.resource.org/cc/PublicDomain" />
        <dc:format>image/svg+xml</dc:format>
      </cc:Work>
      <cc:License
         id="License32"
         rdf:about="http://web.resource.org/cc/PublicDomain">
        <cc:permits
           id="permits33"
           rdf:resource="http://web.resource.org/cc/Reproduction" />
        <cc:permits
           id="permits34"
           rdf:resource="http://web.resource.org/cc/Distribution" />
        <cc:permits
           id="permits35"
           rdf:resource="http://web.resource.org/cc/DerivativeWorks" />
      </cc:License>
    </rdf:RDF>
  </metadata>
</svg>
